<svg width="194" height="177" viewBox="0 0 194 177" fill="none" xmlns="http://www.w3.org/2000/svg">
<rect x="10" width="177" height="177" rx="25" fill="#ECB4EB"/>
<path d="M47.4785 80.9482L48.2573 79.0146H54.8638L55.6426 80.9482H47.4785ZM45.9746 84.8154L46.7266 82.8818H56.3677L57.2002 84.8154H45.9746ZM44.4707 88.6826L45.2227 86.749H57.8984L58.7041 88.6826H44.4707ZM28.7603 94H26.6655L44.2559 49.5273H46.3506L63.9141 94H61.8462L45.3032 52.1323L28.7603 94ZM45.5449 56.7246L46.646 59.1953L32.896 94H30.8281L45.5449 56.7246ZM47.6934 61.8271L48.7139 64.4858L37.0854 94H34.9907L47.6934 61.8271ZM49.7344 67.1445L50.7549 69.8569L41.2212 94H39.1533L49.7344 67.1445ZM76.4019 94H74.3071L56.7437 49.5273H58.8115L76.4019 94ZM54.6489 49.5273L72.2393 94H70.1714L52.5811 49.5273H54.6489ZM50.4863 49.5273L68.0767 94H65.9819L48.4185 49.5273H50.4863ZM110.508 64.7275L108.924 65.7749C107.957 64.3426 106.695 63.2147 105.137 62.3911C103.597 61.5496 101.924 61.1289 100.115 61.1289C97.179 61.1289 94.6725 62.1673 92.5957 64.2441C90.5189 66.321 89.4805 68.8275 89.4805 71.7637C89.4805 74.6999 90.5189 77.2064 92.5957 79.2832C94.6725 81.36 97.179 82.3984 100.115 82.3984C101.924 82.3984 103.597 81.9777 105.137 81.1362C106.695 80.2948 107.957 79.1579 108.924 77.7256L110.481 78.8535C109.336 80.5365 107.85 81.8703 106.023 82.855C104.197 83.8397 102.228 84.332 100.115 84.332C98.4144 84.332 96.7852 84.0008 95.2275 83.3384C93.6878 82.6759 92.354 81.7808 91.2261 80.6528C90.0981 79.5249 89.203 78.1911 88.5405 76.6514C87.8781 75.0938 87.5469 73.4645 87.5469 71.7637C87.5469 70.0628 87.8781 68.4425 88.5405 66.9028C89.203 65.3452 90.0981 64.0024 91.2261 62.8745C92.354 61.7466 93.6878 60.8514 95.2275 60.189C96.7852 59.5265 98.4144 59.1953 100.115 59.1953C102.246 59.1953 104.224 59.6966 106.05 60.6992C107.876 61.6839 109.362 63.0267 110.508 64.7275ZM113.704 62.5254L112.093 63.5728C110.768 61.6392 109.049 60.1084 106.937 58.9805C104.842 57.8346 102.568 57.2617 100.115 57.2617C97.4834 57.2617 95.0575 57.9152 92.8374 59.2222C90.6174 60.5112 88.8538 62.2658 87.5469 64.4858C86.2578 66.7059 85.6133 69.1318 85.6133 71.7637C85.6133 74.3955 86.2578 76.8215 87.5469 79.0415C88.8538 81.2616 90.6174 83.0251 92.8374 84.332C95.0575 85.6211 97.4834 86.2656 100.115 86.2656C102.568 86.2656 104.851 85.6927 106.963 84.5469C109.076 83.401 110.795 81.8524 112.12 79.9009L113.704 81.002C112.2 83.222 110.249 84.9766 107.85 86.2656C105.468 87.5547 102.89 88.1992 100.115 88.1992C97.1432 88.1992 94.395 87.4652 91.8706 85.9971C89.3462 84.529 87.3499 82.5327 85.8818 80.0083C84.4137 77.4839 83.6797 74.7357 83.6797 71.7637C83.6797 68.7917 84.4137 66.0435 85.8818 63.519C87.3499 60.9946 89.3462 58.9984 91.8706 57.5303C94.395 56.0622 97.1432 55.3281 100.115 55.3281C102.89 55.3281 105.468 55.9727 107.85 57.2617C110.249 58.5508 112.2 60.3053 113.704 62.5254ZM116.927 60.377L115.315 61.4243C113.632 58.9536 111.448 57.0021 108.763 55.5698C106.095 54.1196 103.213 53.3945 100.115 53.3945C97.6266 53.3945 95.2454 53.8779 92.9717 54.8447C90.6979 55.8115 88.7375 57.1185 87.0903 58.7656C85.4611 60.3949 84.1631 62.3464 83.1963 64.6201C82.2295 66.8939 81.7461 69.2751 81.7461 71.7637C81.7461 74.2523 82.2295 76.6335 83.1963 78.9072C84.1631 81.181 85.4611 83.1414 87.0903 84.7886C88.7375 86.4178 90.6979 87.7158 92.9717 88.6826C95.2454 89.6494 97.6266 90.1328 100.115 90.1328C103.23 90.1328 106.122 89.4077 108.79 87.9575C111.457 86.5073 113.632 84.5469 115.315 82.0762L116.873 83.231C115.011 85.9523 112.603 88.1097 109.649 89.7031C106.713 91.2786 103.535 92.0664 100.115 92.0664C96.445 92.0664 93.0522 91.1623 89.937 89.354C86.8218 87.5278 84.3511 85.0571 82.5249 81.9419C80.7166 78.8267 79.8125 75.4339 79.8125 71.7637C79.8125 68.0934 80.7166 64.7007 82.5249 61.5854C84.3511 58.4702 86.8218 56.0085 89.937 54.2002C93.0522 52.374 96.445 51.4609 100.115 51.4609C103.553 51.4609 106.749 52.2666 109.703 53.8779C112.657 55.4714 115.065 57.6377 116.927 60.377ZM120.096 58.1748L118.484 59.2222C116.443 56.2323 113.803 53.869 110.562 52.1323C107.339 50.3957 103.857 49.5273 100.115 49.5273C97.1074 49.5273 94.2249 50.1182 91.4678 51.2998C88.7285 52.4635 86.3652 54.0391 84.3779 56.0264C82.3906 58.0137 80.8062 60.3859 79.6245 63.1431C78.4608 65.8823 77.8789 68.7559 77.8789 71.7637C77.8789 74.7715 78.4608 77.654 79.6245 80.4111C80.8062 83.1504 82.3906 85.5137 84.3779 87.501C86.3652 89.4883 88.7285 91.0728 91.4678 92.2544C94.2249 93.4181 97.1074 94 100.115 94C103.857 94 107.348 93.1227 110.589 91.3682C113.829 89.6136 116.47 87.2414 118.511 84.2515L120.069 85.4331C117.849 88.6558 114.984 91.216 111.475 93.1138C107.966 94.9937 104.179 95.9336 100.115 95.9336C96.8389 95.9336 93.7057 95.2891 90.7158 94C87.7438 92.7288 85.1746 91.019 83.0083 88.8706C80.8599 86.7043 79.1411 84.1351 77.8521 81.1631C76.5809 78.1732 75.9453 75.04 75.9453 71.7637C75.9453 68.4873 76.5809 65.3631 77.8521 62.3911C79.1411 59.4012 80.8599 56.832 83.0083 54.6836C85.1746 52.5173 87.7438 50.7985 90.7158 49.5273C93.7057 48.2383 96.8389 47.5938 100.115 47.5938C104.197 47.5938 107.993 48.5426 111.502 50.4404C115.011 52.3382 117.876 54.9163 120.096 58.1748ZM157.398 64.7275L155.813 65.7749C154.847 64.3426 153.584 63.2147 152.027 62.3911C150.487 61.5496 148.813 61.1289 147.005 61.1289C144.069 61.1289 141.562 62.1673 139.485 64.2441C137.409 66.321 136.37 68.8275 136.37 71.7637C136.37 74.6999 137.409 77.2064 139.485 79.2832C141.562 81.36 144.069 82.3984 147.005 82.3984C148.813 82.3984 150.487 81.9777 152.027 81.1362C153.584 80.2948 154.847 79.1579 155.813 77.7256L157.371 78.8535C156.225 80.5365 154.739 81.8703 152.913 82.855C151.087 83.8397 149.118 84.332 147.005 84.332C145.304 84.332 143.675 84.0008 142.117 83.3384C140.577 82.6759 139.244 81.7808 138.116 80.6528C136.988 79.5249 136.093 78.1911 135.43 76.6514C134.768 75.0938 134.437 73.4645 134.437 71.7637C134.437 70.0628 134.768 68.4425 135.43 66.9028C136.093 65.3452 136.988 64.0024 138.116 62.8745C139.244 61.7466 140.577 60.8514 142.117 60.189C143.675 59.5265 145.304 59.1953 147.005 59.1953C149.135 59.1953 151.114 59.6966 152.94 60.6992C154.766 61.6839 156.252 63.0267 157.398 64.7275ZM160.594 62.5254L158.982 63.5728C157.658 61.6392 155.939 60.1084 153.826 58.9805C151.731 57.8346 149.458 57.2617 147.005 57.2617C144.373 57.2617 141.947 57.9152 139.727 59.2222C137.507 60.5112 135.743 62.2658 134.437 64.4858C133.147 66.7059 132.503 69.1318 132.503 71.7637C132.503 74.3955 133.147 76.8215 134.437 79.0415C135.743 81.2616 137.507 83.0251 139.727 84.332C141.947 85.6211 144.373 86.2656 147.005 86.2656C149.458 86.2656 151.74 85.6927 153.853 84.5469C155.966 83.401 157.684 81.8524 159.009 79.9009L160.594 81.002C159.09 83.222 157.138 84.9766 154.739 86.2656C152.358 87.5547 149.78 88.1992 147.005 88.1992C144.033 88.1992 141.285 87.4652 138.76 85.9971C136.236 84.529 134.24 82.5327 132.771 80.0083C131.303 77.4839 130.569 74.7357 130.569 71.7637C130.569 68.7917 131.303 66.0435 132.771 63.519C134.24 60.9946 136.236 58.9984 138.76 57.5303C141.285 56.0622 144.033 55.3281 147.005 55.3281C149.78 55.3281 152.358 55.9727 154.739 57.2617C157.138 58.5508 159.09 60.3053 160.594 62.5254ZM163.816 60.377L162.205 61.4243C160.522 58.9536 158.338 57.0021 155.652 55.5698C152.985 54.1196 150.102 53.3945 147.005 53.3945C144.516 53.3945 142.135 53.8779 139.861 54.8447C137.588 55.8115 135.627 57.1185 133.98 58.7656C132.351 60.3949 131.053 62.3464 130.086 64.6201C129.119 66.8939 128.636 69.2751 128.636 71.7637C128.636 74.2523 129.119 76.6335 130.086 78.9072C131.053 81.181 132.351 83.1414 133.98 84.7886C135.627 86.4178 137.588 87.7158 139.861 88.6826C142.135 89.6494 144.516 90.1328 147.005 90.1328C150.12 90.1328 153.012 89.4077 155.679 87.9575C158.347 86.5073 160.522 84.5469 162.205 82.0762L163.763 83.231C161.901 85.9523 159.493 88.1097 156.539 89.7031C153.602 91.2786 150.424 92.0664 147.005 92.0664C143.335 92.0664 139.942 91.1623 136.827 89.354C133.711 87.5278 131.241 85.0571 129.415 81.9419C127.606 78.8267 126.702 75.4339 126.702 71.7637C126.702 68.0934 127.606 64.7007 129.415 61.5854C131.241 58.4702 133.711 56.0085 136.827 54.2002C139.942 52.374 143.335 51.4609 147.005 51.4609C150.442 51.4609 153.638 52.2666 156.592 53.8779C159.546 55.4714 161.954 57.6377 163.816 60.377ZM166.985 58.1748L165.374 59.2222C163.333 56.2323 160.692 53.869 157.452 52.1323C154.229 50.3957 150.747 49.5273 147.005 49.5273C143.997 49.5273 141.115 50.1182 138.357 51.2998C135.618 52.4635 133.255 54.0391 131.268 56.0264C129.28 58.0137 127.696 60.3859 126.514 63.1431C125.35 65.8823 124.769 68.7559 124.769 71.7637C124.769 74.7715 125.35 77.654 126.514 80.4111C127.696 83.1504 129.28 85.5137 131.268 87.501C133.255 89.4883 135.618 91.0728 138.357 92.2544C141.115 93.4181 143.997 94 147.005 94C150.747 94 154.238 93.1227 157.479 91.3682C160.719 89.6136 163.36 87.2414 165.401 84.2515L166.958 85.4331C164.738 88.6558 161.874 91.216 158.365 93.1138C154.856 94.9937 151.069 95.9336 147.005 95.9336C143.729 95.9336 140.595 95.2891 137.605 94C134.633 92.7288 132.064 91.019 129.898 88.8706C127.75 86.7043 126.031 84.1351 124.742 81.1631C123.471 78.1732 122.835 75.04 122.835 71.7637C122.835 68.4873 123.471 65.3631 124.742 62.3911C126.031 59.4012 127.75 56.832 129.898 54.6836C132.064 52.5173 134.633 50.7985 137.605 49.5273C140.595 48.2383 143.729 47.5938 147.005 47.5938C151.087 47.5938 154.882 48.5426 158.392 50.4404C161.901 52.3382 164.765 54.9163 166.985 58.1748Z" fill="#49204D"/>
<path d="M47.4785 80.9482L47.0147 80.7614L46.7381 81.4482H47.4785V80.9482ZM48.2573 79.0146V78.5146H47.9197L47.7935 78.8278L48.2573 79.0146ZM54.8638 79.0146L55.3276 78.8278L55.2014 78.5146H54.8638V79.0146ZM55.6426 80.9482V81.4482H56.383L56.1064 80.7614L55.6426 80.9482ZM45.9746 84.8154L45.5086 84.6342L45.2437 85.3154H45.9746V84.8154ZM46.7266 82.8818V82.3818H46.3845L46.2606 82.7006L46.7266 82.8818ZM56.3677 82.8818L56.8269 82.6841L56.6968 82.3818H56.3677V82.8818ZM57.2002 84.8154V85.3154H57.9598L57.6594 84.6177L57.2002 84.8154ZM44.4707 88.6826L44.0047 88.5014L43.7398 89.1826H44.4707V88.6826ZM45.2227 86.749V86.249H44.8806L44.7567 86.5678L45.2227 86.749ZM57.8984 86.749L58.36 86.5567L58.2318 86.249H57.8984V86.749ZM58.7041 88.6826V89.1826H59.4541L59.1656 88.4903L58.7041 88.6826ZM28.7603 94V94.5H29.1003L29.2253 94.1837L28.7603 94ZM26.6655 94L26.2006 93.8161L25.9301 94.5H26.6655V94ZM44.2559 49.5273V49.0273H43.9159L43.7909 49.3434L44.2559 49.5273ZM46.3506 49.5273L46.8156 49.3437L46.6907 49.0273H46.3506V49.5273ZM63.9141 94V94.5H64.6491L64.3791 93.8163L63.9141 94ZM61.8462 94L61.3812 94.1837L61.5061 94.5H61.8462V94ZM45.3032 52.1323L45.7682 51.9486L45.3032 50.7717L44.8382 51.9486L45.3032 52.1323ZM45.5449 56.7246L46.0016 56.5211L45.517 55.4337L45.0799 56.541L45.5449 56.7246ZM46.646 59.1953L47.111 59.379L47.1882 59.1837L47.1027 58.9918L46.646 59.1953ZM32.896 94V94.5H33.2361L33.361 94.1837L32.896 94ZM30.8281 94L30.3631 93.8164L30.0932 94.5H30.8281V94ZM47.6934 61.8271L48.1602 61.648L47.6999 60.449L47.2283 61.6435L47.6934 61.8271ZM48.7139 64.4858L49.1791 64.6691L49.2503 64.4882L49.1807 64.3067L48.7139 64.4858ZM37.0854 94V94.5H37.4259L37.5506 94.1833L37.0854 94ZM34.9907 94L34.5257 93.8164L34.2557 94.5H34.9907V94ZM49.7344 67.1445L50.2023 66.9685L49.7451 65.7532L49.2692 66.9612L49.7344 67.1445ZM50.7549 69.8569L51.2199 70.0406L51.2907 69.8613L51.2229 69.6809L50.7549 69.8569ZM41.2212 94V94.5H41.5613L41.6862 94.1836L41.2212 94ZM39.1533 94L38.6881 93.8167L38.4189 94.5H39.1533V94ZM76.4019 94V94.5H77.1373L76.8668 93.8161L76.4019 94ZM74.3071 94L73.8421 94.1837L73.967 94.5H74.3071V94ZM56.7437 49.5273V49.0273H56.0086L56.2786 49.711L56.7437 49.5273ZM58.8115 49.5273L59.2765 49.3434L59.1514 49.0273H58.8115V49.5273ZM54.6489 49.5273L55.1139 49.3434L54.9889 49.0273H54.6489V49.5273ZM72.2393 94V94.5H72.9747L72.7042 93.8161L72.2393 94ZM70.1714 94L69.7064 94.1839L69.8315 94.5H70.1714V94ZM52.5811 49.5273V49.0273H51.8456L52.1161 49.7112L52.5811 49.5273ZM50.4863 49.5273L50.9513 49.3434L50.8263 49.0273H50.4863V49.5273ZM68.0767 94V94.5H68.8121L68.5416 93.8161L68.0767 94ZM65.9819 94L65.5169 94.1837L65.6418 94.5H65.9819V94ZM48.4185 49.5273V49.0273H47.6834L47.9534 49.711L48.4185 49.5273ZM47.4785 80.9482L47.9423 81.135L48.7211 79.2015L48.2573 79.0146L47.7935 78.8278L47.0147 80.7614L47.4785 80.9482ZM48.2573 79.0146V79.5146H54.8638V79.0146V78.5146H48.2573V79.0146ZM54.8638 79.0146L54.4 79.2015L55.1788 81.135L55.6426 80.9482L56.1064 80.7614L55.3276 78.8278L54.8638 79.0146ZM55.6426 80.9482V80.4482H47.4785V80.9482V81.4482H55.6426V80.9482ZM45.9746 84.8154L46.4406 84.9967L47.1926 83.0631L46.7266 82.8818L46.2606 82.7006L45.5086 84.6342L45.9746 84.8154ZM46.7266 82.8818V83.3818H56.3677V82.8818V82.3818H46.7266V82.8818ZM56.3677 82.8818L55.9084 83.0796L56.741 85.0132L57.2002 84.8154L57.6594 84.6177L56.8269 82.6841L56.3677 82.8818ZM57.2002 84.8154V84.3154H45.9746V84.8154V85.3154H57.2002V84.8154ZM44.4707 88.6826L44.9367 88.8638L45.6887 86.9302L45.2227 86.749L44.7567 86.5678L44.0047 88.5014L44.4707 88.6826ZM45.2227 86.749V87.249H57.8984V86.749V86.249H45.2227V86.749ZM57.8984 86.749L57.4369 86.9413L58.2426 88.8749L58.7041 88.6826L59.1656 88.4903L58.36 86.5567L57.8984 86.749ZM58.7041 88.6826V88.1826H44.4707V88.6826V89.1826H58.7041V88.6826ZM28.7603 94V93.5H26.6655V94V94.5H28.7603V94ZM26.6655 94L27.1305 94.1839L44.7208 49.7112L44.2559 49.5273L43.7909 49.3434L26.2006 93.8161L26.6655 94ZM44.2559 49.5273V50.0273H46.3506V49.5273V49.0273H44.2559V49.5273ZM46.3506 49.5273L45.8855 49.711L63.449 94.1837L63.9141 94L64.3791 93.8163L46.8156 49.3437L46.3506 49.5273ZM63.9141 94V93.5H61.8462V94V94.5H63.9141V94ZM61.8462 94L62.3112 93.8163L45.7682 51.9486L45.3032 52.1323L44.8382 52.3161L61.3812 94.1837L61.8462 94ZM45.3032 52.1323L44.8382 51.9486L28.2952 93.8163L28.7603 94L29.2253 94.1837L45.7682 52.3161L45.3032 52.1323ZM45.5449 56.7246L45.0882 56.9281L46.1893 59.3988L46.646 59.1953L47.1027 58.9918L46.0016 56.5211L45.5449 56.7246ZM46.646 59.1953L46.181 59.0116L32.431 93.8163L32.896 94L33.361 94.1837L47.111 59.379L46.646 59.1953ZM32.896 94V93.5H30.8281V94V94.5H32.896V94ZM30.8281 94L31.2932 94.1836L46.01 56.9082L45.5449 56.7246L45.0799 56.541L30.3631 93.8164L30.8281 94ZM47.6934 61.8271L47.2266 62.0063L48.2471 64.665L48.7139 64.4858L49.1807 64.3067L48.1602 61.648L47.6934 61.8271ZM48.7139 64.4858L48.2487 64.3026L36.6203 93.8167L37.0854 94L37.5506 94.1833L49.1791 64.6691L48.7139 64.4858ZM37.0854 94V93.5H34.9907V94V94.5H37.0854V94ZM34.9907 94L35.4558 94.1836L48.1584 62.0108L47.6934 61.8271L47.2283 61.6435L34.5257 93.8164L34.9907 94ZM49.7344 67.1445L49.2664 67.3206L50.2869 70.033L50.7549 69.8569L51.2229 69.6809L50.2023 66.9685L49.7344 67.1445ZM50.7549 69.8569L50.2898 69.6733L40.7561 93.8164L41.2212 94L41.6862 94.1836L51.2199 70.0406L50.7549 69.8569ZM41.2212 94V93.5H39.1533V94V94.5H41.2212V94ZM39.1533 94L39.6185 94.1833L50.1996 67.3278L49.7344 67.1445L49.2692 66.9612L38.6881 93.8167L39.1533 94ZM76.4019 94V93.5H74.3071V94V94.5H76.4019V94ZM74.3071 94L74.7722 93.8163L57.2087 49.3437L56.7437 49.5273L56.2786 49.711L73.8421 94.1837L74.3071 94ZM56.7437 49.5273V50.0273H58.8115V49.5273V49.0273H56.7437V49.5273ZM58.8115 49.5273L58.3466 49.7112L75.9369 94.1839L76.4019 94L76.8668 93.8161L59.2765 49.3434L58.8115 49.5273ZM54.6489 49.5273L54.184 49.7112L71.7743 94.1839L72.2393 94L72.7042 93.8161L55.1139 49.3434L54.6489 49.5273ZM72.2393 94V93.5H70.1714V94V94.5H72.2393V94ZM70.1714 94L70.6363 93.8161L53.046 49.3434L52.5811 49.5273L52.1161 49.7112L69.7064 94.1839L70.1714 94ZM52.5811 49.5273V50.0273H54.6489V49.5273V49.0273H52.5811V49.5273ZM50.4863 49.5273L50.0214 49.7112L67.6117 94.1839L68.0767 94L68.5416 93.8161L50.9513 49.3434L50.4863 49.5273ZM68.0767 94V93.5H65.9819V94V94.5H68.0767V94ZM65.9819 94L66.447 93.8163L48.8835 49.3437L48.4185 49.5273L47.9534 49.711L65.5169 94.1837L65.9819 94ZM48.4185 49.5273V50.0273H50.4863V49.5273V49.0273H48.4185V49.5273ZM110.508 64.7275L110.784 65.1446L111.205 64.8665L110.923 64.4482L110.508 64.7275ZM108.924 65.7749L108.509 66.0546L108.786 66.4651L109.2 66.192L108.924 65.7749ZM105.137 62.3911L104.897 62.8299L104.903 62.8331L105.137 62.3911ZM92.5957 79.2832L92.2421 79.6368L92.5957 79.2832ZM105.137 81.1362L104.9 80.6963L104.897 80.6975L105.137 81.1362ZM108.924 77.7256L109.217 77.3206L108.799 77.0175L108.509 77.4458L108.924 77.7256ZM110.481 78.8535L110.895 79.1349L111.168 78.7334L110.775 78.4485L110.481 78.8535ZM95.2275 83.3384L95.0299 83.7977L95.0319 83.7985L95.2275 83.3384ZM88.5405 76.6514L88.0804 76.8471L88.0812 76.849L88.5405 76.6514ZM88.5405 66.9028L88.9998 67.1004L89.0006 67.0985L88.5405 66.9028ZM95.2275 60.189L95.0319 59.7288L95.0299 59.7297L95.2275 60.189ZM106.05 60.6992L105.81 61.1375L105.813 61.1393L106.05 60.6992ZM113.704 62.5254L113.977 62.9446L114.404 62.6669L114.118 62.245L113.704 62.5254ZM112.093 63.5728L111.68 63.8554L111.956 64.2579L112.365 63.992L112.093 63.5728ZM106.937 58.9805L106.697 59.4192L106.701 59.4215L106.937 58.9805ZM92.8374 59.2222L93.0885 59.6546L93.0911 59.653L92.8374 59.2222ZM87.5469 64.4858L87.116 64.2322L87.1145 64.2348L87.5469 64.4858ZM87.5469 79.0415L87.1145 79.2926L87.116 79.2952L87.5469 79.0415ZM92.8374 84.332L92.5837 84.7629L92.5863 84.7644L92.8374 84.332ZM112.12 79.9009L112.405 79.4903L111.99 79.2018L111.706 79.62L112.12 79.9009ZM113.704 81.002L114.118 81.2824L114.395 80.8733L113.989 80.5914L113.704 81.002ZM107.85 86.2656L107.613 85.8252L107.612 85.8259L107.85 86.2656ZM91.8706 85.9971L91.6192 86.4293L91.8706 85.9971ZM107.85 57.2617L107.612 57.7014L107.613 57.7022L107.85 57.2617ZM116.927 60.377L117.199 60.7962L117.627 60.518L117.34 60.0959L116.927 60.377ZM115.315 61.4243L114.902 61.7058L115.178 62.1102L115.588 61.8435L115.315 61.4243ZM108.763 55.5698L108.524 56.0091L108.527 56.011L108.763 55.5698ZM87.0903 58.7656L86.7368 58.4121L87.0903 58.7656ZM87.0903 84.7886L86.7348 85.1402L86.7387 85.1441L87.0903 84.7886ZM115.315 82.0762L115.613 81.6745L115.195 81.3646L114.902 81.7947L115.315 82.0762ZM116.873 83.231L117.286 83.5133L117.558 83.116L117.171 82.8293L116.873 83.231ZM109.649 89.7031L109.885 90.1437L109.886 90.1432L109.649 89.7031ZM89.937 89.354L89.6841 89.7854L89.686 89.7864L89.937 89.354ZM82.5249 81.9419L82.0925 82.1929L82.0936 82.1948L82.5249 81.9419ZM82.5249 61.5854L82.0935 61.3326L82.0925 61.3344L82.5249 61.5854ZM89.937 54.2002L90.188 54.6326L90.1899 54.6315L89.937 54.2002ZM109.703 53.8779L109.463 54.3169L109.465 54.318L109.703 53.8779ZM120.096 58.1748L120.368 58.594L120.797 58.3156L120.509 57.8933L120.096 58.1748ZM118.484 59.2222L118.071 59.5041L118.347 59.9078L118.757 59.6414L118.484 59.2222ZM110.562 52.1323L110.325 52.5725L110.326 52.573L110.562 52.1323ZM91.4678 51.2998L91.6633 51.76L91.6647 51.7594L91.4678 51.2998ZM79.6245 63.1431L79.1649 62.9461L79.1643 62.9476L79.6245 63.1431ZM79.6245 80.4111L79.1638 80.6056L79.1654 80.6092L79.6245 80.4111ZM91.4678 92.2544L91.2697 92.7135L91.2733 92.715L91.4678 92.2544ZM118.511 84.2515L118.813 83.8531L118.395 83.5354L118.098 83.9696L118.511 84.2515ZM120.069 85.4331L120.481 85.7168L120.752 85.3234L120.371 85.0348L120.069 85.4331ZM111.475 93.1138L111.711 93.5545L111.713 93.5536L111.475 93.1138ZM90.7158 94L90.9138 93.5409L90.9124 93.5403L90.7158 94ZM83.0083 88.8706L82.6533 89.2227L82.6562 89.2256L83.0083 88.8706ZM77.8521 81.1631L77.3919 81.3587L77.3933 81.362L77.8521 81.1631ZM77.8521 62.3911L77.3929 62.1932L77.3923 62.1945L77.8521 62.3911ZM90.7158 49.5273L90.9124 49.9871L90.9138 49.9865L90.7158 49.5273ZM110.508 64.7275L110.233 64.3104L108.648 65.3578L108.924 65.7749L109.2 66.192L110.784 65.1446L110.508 64.7275ZM108.924 65.7749L109.338 65.4952C108.325 63.9934 107 62.8103 105.371 61.9491L105.137 62.3911L104.903 62.8331C106.39 63.6191 107.59 64.6919 108.509 66.0546L108.924 65.7749ZM105.137 62.3911L105.377 61.9524C103.761 61.0694 102.005 60.6289 100.115 60.6289V61.1289V61.6289C101.842 61.6289 103.434 62.0298 104.897 62.8299L105.137 62.3911ZM100.115 61.1289V60.6289C97.0464 60.6289 94.4127 61.72 92.2421 63.8906L92.5957 64.2441L92.9493 64.5977C94.9323 62.6146 97.3117 61.6289 100.115 61.6289V61.1289ZM92.5957 64.2441L92.2421 63.8906C90.0716 66.0611 88.9805 68.6948 88.9805 71.7637H89.4805H89.9805C89.9805 68.9601 90.9662 66.5808 92.9493 64.5977L92.5957 64.2441ZM89.4805 71.7637H88.9805C88.9805 74.8325 90.0716 77.4662 92.2421 79.6368L92.5957 79.2832L92.9493 78.9296C90.9662 76.9466 89.9805 74.5672 89.9805 71.7637H89.4805ZM92.5957 79.2832L92.2421 79.6368C94.4127 81.8073 97.0464 82.8984 100.115 82.8984V82.3984V81.8984C97.3117 81.8984 94.9323 80.9127 92.9493 78.9296L92.5957 79.2832ZM100.115 82.3984V82.8984C102.005 82.8984 103.761 82.4579 105.377 81.575L105.137 81.1362L104.897 80.6975C103.434 81.4975 101.842 81.8984 100.115 81.8984V82.3984ZM105.137 81.1362L105.375 81.5761C107.002 80.6973 108.325 79.5062 109.338 78.0053L108.924 77.7256L108.509 77.4458C107.589 78.8096 106.388 79.8922 104.9 80.6963L105.137 81.1362ZM108.924 77.7256L108.631 78.1306L110.188 79.2585L110.481 78.8535L110.775 78.4485L109.217 77.3206L108.924 77.7256ZM110.481 78.8535L110.068 78.5721C108.968 80.1875 107.543 81.4675 105.786 82.4149L106.023 82.855L106.261 83.2951C108.156 82.2731 109.703 80.8854 110.895 79.1349L110.481 78.8535ZM106.023 82.855L105.786 82.4149C104.034 83.3595 102.147 83.832 100.115 83.832V84.332V84.832C102.309 84.832 104.36 84.3198 106.261 83.2951L106.023 82.855ZM100.115 84.332V83.832C98.4813 83.832 96.9186 83.5142 95.4232 82.8783L95.2275 83.3384L95.0319 83.7985C96.6517 84.4874 98.3475 84.832 100.115 84.832V84.332ZM95.2275 83.3384L95.4251 82.8791C93.9406 82.2404 92.6605 81.3801 91.5796 80.2993L91.2261 80.6528L90.8725 81.0064C92.0475 82.1814 93.435 83.1115 95.0299 83.7977L95.2275 83.3384ZM91.2261 80.6528L91.5796 80.2993C90.4988 79.2184 89.6385 77.9383 88.9998 76.4538L88.5405 76.6514L88.0812 76.849C88.7674 78.4439 89.6975 79.8314 90.8725 81.0064L91.2261 80.6528ZM88.5405 76.6514L89.0006 76.4557C88.3647 74.9603 88.0469 73.3976 88.0469 71.7637H87.5469H87.0469C87.0469 73.5314 87.3915 75.2272 88.0804 76.847L88.5405 76.6514ZM87.5469 71.7637H88.0469C88.0469 70.1297 88.3646 68.5768 88.9998 67.1004L88.5405 66.9028L88.0812 66.7052C87.3915 68.3083 87.0469 69.9959 87.0469 71.7637H87.5469ZM88.5405 66.9028L89.0006 67.0985C89.6396 65.5962 90.4997 64.308 91.5796 63.2281L91.2261 62.8745L90.8725 62.521C89.6966 63.6969 88.7664 65.0942 88.0804 66.7071L88.5405 66.9028ZM91.2261 62.8745L91.5796 63.2281C92.6605 62.1472 93.9406 61.2869 95.4251 60.6483L95.2275 60.189L95.0299 59.7297C93.435 60.4159 92.0475 61.346 90.8725 62.521L91.2261 62.8745ZM95.2275 60.189L95.4232 60.6491C96.9186 60.0131 98.4813 59.6953 100.115 59.6953V59.1953V58.6953C98.3475 58.6953 96.6517 59.04 95.0319 59.7288L95.2275 60.189ZM100.115 59.1953V59.6953C102.164 59.6953 104.059 60.1763 105.81 61.1375L106.05 60.6992L106.291 60.2609C104.389 59.2169 102.328 58.6953 100.115 58.6953V59.1953ZM106.05 60.6992L105.813 61.1393C107.569 62.0861 108.994 63.374 110.094 65.0069L110.508 64.7275L110.923 64.4482C109.731 62.6794 108.184 61.2818 106.288 60.2591L106.05 60.6992ZM113.704 62.5254L113.432 62.1062L111.82 63.1535L112.093 63.5728L112.365 63.992L113.977 62.9446L113.704 62.5254ZM112.093 63.5728L112.505 63.2901C111.134 61.2888 109.354 59.7043 107.172 58.5394L106.937 58.9805L106.701 59.4215C108.744 60.5125 110.402 61.9895 111.68 63.8554L112.093 63.5728ZM106.937 58.9805L107.176 58.5418C105.006 57.3546 102.65 56.7617 100.115 56.7617V57.2617V57.7617C102.487 57.7617 104.677 58.3147 106.697 59.4191L106.937 58.9805ZM100.115 57.2617V56.7617C97.3962 56.7617 94.8824 57.4381 92.5837 58.7913L92.8374 59.2222L93.0911 59.653C95.2325 58.3924 97.5706 57.7617 100.115 57.7617V57.2617ZM92.8374 59.2222L92.5863 58.7898C90.2917 60.1221 88.4664 61.9384 87.116 64.2322L87.5469 64.4858L87.9778 64.7395C89.2413 62.5932 90.943 60.9003 93.0885 59.6546L92.8374 59.2222ZM87.5469 64.4858L87.1145 64.2348C85.78 66.5331 85.1133 69.046 85.1133 71.7637H85.6133H86.1133C86.1133 69.2177 86.7356 66.8787 87.9793 64.7369L87.5469 64.4858ZM85.6133 71.7637H85.1133C85.1133 74.4814 85.78 76.9943 87.1145 79.2926L87.5469 79.0415L87.9793 78.7904C86.7356 76.6486 86.1133 74.3096 86.1133 71.7637H85.6133ZM87.5469 79.0415L87.116 79.2952C88.466 81.5884 90.2905 83.4129 92.5837 84.7629L92.8374 84.332L93.0911 83.9012C90.9442 82.6373 89.2416 80.9347 87.9778 78.7878L87.5469 79.0415ZM92.8374 84.332L92.5863 84.7644C94.8846 86.0989 97.3975 86.7656 100.115 86.7656V86.2656V85.7656C97.5693 85.7656 95.2303 85.1433 93.0885 83.8996L92.8374 84.332ZM100.115 86.2656V86.7656C102.65 86.7656 105.014 86.1728 107.202 84.9864L106.963 84.5469L106.725 84.1074C104.687 85.2127 102.487 85.7656 100.115 85.7656V86.2656ZM106.963 84.5469L107.202 84.9864C109.383 83.8032 111.163 82.2007 112.533 80.1817L112.12 79.9009L111.706 79.62C110.427 81.5041 108.769 82.9989 106.725 84.1074L106.963 84.5469ZM112.12 79.9009L111.834 80.3115L113.419 81.4125L113.704 81.002L113.989 80.5914L112.405 79.4903L112.12 79.9009ZM113.704 81.002L113.29 80.7215C111.832 82.8736 109.942 84.5737 107.613 85.8252L107.85 86.2656L108.086 86.7061C110.555 85.3794 112.568 83.5704 114.118 81.2824L113.704 81.002ZM107.85 86.2656L107.612 85.8259C105.305 87.0744 102.809 87.6992 100.115 87.6992V88.1992V88.6992C102.971 88.6992 105.631 88.035 108.088 86.7053L107.85 86.2656ZM100.115 88.1992V87.6992C97.2299 87.6992 94.5686 86.9877 92.122 85.5648L91.8706 85.9971L91.6192 86.4293C94.2214 87.9426 97.0566 88.6992 100.115 88.6992V88.1992ZM91.8706 85.9971L92.122 85.5648C89.6725 84.1403 87.7386 82.2064 86.3141 79.7569L85.8818 80.0083L85.4496 80.2597C86.9613 82.859 89.0199 84.9176 91.6192 86.4293L91.8706 85.9971ZM85.8818 80.0083L86.3141 79.7569C84.8912 77.3103 84.1797 74.649 84.1797 71.7637H83.6797H83.1797C83.1797 74.8223 83.9363 77.6575 85.4496 80.2597L85.8818 80.0083ZM83.6797 71.7637H84.1797C84.1797 68.8783 84.8912 66.2171 86.3141 63.7704L85.8818 63.519L85.4496 63.2677C83.9363 65.8698 83.1797 68.705 83.1797 71.7637H83.6797ZM85.8818 63.519L86.3141 63.7704C87.7386 61.3209 89.6725 59.387 92.122 57.9625L91.8706 57.5303L91.6192 57.0981C89.0199 58.6097 86.9613 60.6683 85.4496 63.2677L85.8818 63.519ZM91.8706 57.5303L92.122 57.9625C94.5686 56.5396 97.2299 55.8281 100.115 55.8281V55.3281V54.8281C97.0566 54.8281 94.2214 55.5847 91.6192 57.0981L91.8706 57.5303ZM100.115 55.3281V55.8281C102.809 55.8281 105.305 56.4529 107.612 57.7014L107.85 57.2617L108.088 56.822C105.631 55.4924 102.971 54.8281 100.115 54.8281V55.3281ZM107.85 57.2617L107.613 57.7022C109.942 58.9536 111.832 60.6537 113.29 62.8058L113.704 62.5254L114.118 62.245C112.568 59.957 110.555 58.1479 108.086 56.8213L107.85 57.2617ZM116.927 60.377L116.654 59.9577L115.043 61.0051L115.315 61.4243L115.588 61.8435L117.199 60.7962L116.927 60.377ZM115.315 61.4243L115.729 61.1428C113.999 58.604 111.754 56.5983 108.998 55.1286L108.763 55.5698L108.527 56.011C111.143 57.406 113.266 59.3032 114.902 61.7058L115.315 61.4243ZM108.763 55.5698L109.002 55.1305C106.259 53.6397 103.294 52.8945 100.115 52.8945V53.3945V53.8945C103.131 53.8945 105.931 54.5996 108.524 56.0091L108.763 55.5698ZM100.115 53.3945V52.8945C97.5599 52.8945 95.1121 53.3913 92.776 54.3846L92.9717 54.8447L93.1673 55.3049C95.3788 54.3646 97.6934 53.8945 100.115 53.8945V53.3945ZM92.9717 54.8447L92.776 54.3846C90.4469 55.3749 88.4319 56.7169 86.7368 58.4121L87.0903 58.7656L87.4439 59.1192C89.043 57.5201 90.9489 56.2481 93.1673 55.3049L92.9717 54.8447ZM87.0903 58.7656L86.7368 58.4121C85.059 60.0898 83.7262 62.096 82.7362 64.4245L83.1963 64.6201L83.6564 64.8158C84.6 62.5967 85.8632 60.6999 87.4439 59.1192L87.0903 58.7656ZM83.1963 64.6201L82.7362 64.4245C81.7429 66.7606 81.2461 69.2083 81.2461 71.7637H81.7461H82.2461C82.2461 69.3418 82.7161 67.0272 83.6564 64.8158L83.1963 64.6201ZM81.7461 71.7637H81.2461C81.2461 74.319 81.7429 76.7668 82.7362 79.1029L83.1963 78.9072L83.6564 78.7116C82.7161 76.5001 82.2461 74.1855 82.2461 71.7637H81.7461ZM83.1963 78.9072L82.7362 79.1029C83.726 81.4309 85.0583 83.4452 86.7349 85.1402L87.0903 84.7886L87.4458 84.437C85.8639 82.8377 84.6002 80.9311 83.6564 78.7116L83.1963 78.9072ZM87.0903 84.7886L86.7387 85.1441C88.4337 86.8206 90.448 88.1529 92.776 89.1428L92.9717 88.6826L93.1673 88.2225C90.9478 87.2787 89.0413 86.015 87.4419 84.4331L87.0903 84.7886ZM92.9717 88.6826L92.776 89.1428C95.1121 90.136 97.5599 90.6328 100.115 90.6328V90.1328V89.6328C97.6934 89.6328 95.3788 89.1628 93.1673 88.2225L92.9717 88.6826ZM100.115 90.1328V90.6328C103.312 90.6328 106.285 89.8879 109.028 88.3968L108.79 87.9575L108.551 87.5182C105.958 88.9275 103.149 89.6328 100.115 89.6328V90.1328ZM108.79 87.9575L109.028 88.3968C111.765 86.9092 114 84.8951 115.729 82.3577L115.315 82.0762L114.902 81.7947C113.265 84.1986 111.15 86.1054 108.551 87.5182L108.79 87.9575ZM115.315 82.0762L115.018 82.4778L116.575 83.6326L116.873 83.231L117.171 82.8293L115.613 81.6745L115.315 82.0762ZM116.873 83.231L116.46 82.9486C114.644 85.603 112.297 87.7068 109.412 89.2631L109.649 89.7031L109.886 90.1432C112.909 88.5126 115.378 86.3017 117.286 83.5133L116.873 83.231ZM109.649 89.7031L109.413 89.2625C106.551 90.798 103.455 91.5664 100.115 91.5664V92.0664V92.5664C103.615 92.5664 106.874 91.7593 109.885 90.1437L109.649 89.7031ZM100.115 92.0664V91.5664C96.5314 91.5664 93.2255 90.6847 90.188 88.9216L89.937 89.354L89.686 89.7864C92.879 91.6398 96.3586 92.5664 100.115 92.5664V92.0664ZM89.937 89.354L90.1899 88.9227C87.1484 87.1397 84.7392 84.7305 82.9563 81.689L82.5249 81.9419L82.0936 82.1948C83.963 85.3838 86.4951 87.9159 89.6842 89.7854L89.937 89.354ZM82.5249 81.9419L82.9573 81.6909C81.1942 78.6534 80.3125 75.3475 80.3125 71.7637H79.8125H79.3125C79.3125 75.5203 80.2391 78.9999 82.0925 82.1929L82.5249 81.9419ZM79.8125 71.7637H80.3125C80.3125 68.1798 81.1942 64.8739 82.9573 61.8365L82.5249 61.5854L82.0925 61.3344C80.2391 64.5274 79.3125 68.007 79.3125 71.7637H79.8125ZM82.5249 61.5854L82.9563 61.8383C84.7389 58.7973 87.1476 56.3975 90.188 54.6326L89.937 54.2002L89.686 53.7678C86.496 55.6194 83.9632 58.1431 82.0936 61.3326L82.5249 61.5854ZM89.937 54.2002L90.1899 54.6315C93.2271 52.8511 96.5323 51.9609 100.115 51.9609V51.4609V50.9609C96.3576 50.9609 92.8774 51.897 89.6842 53.7688L89.937 54.2002ZM100.115 51.4609V51.9609C103.471 51.9609 106.584 52.7465 109.463 54.3169L109.703 53.8779L109.942 53.439C106.913 51.7867 103.635 50.9609 100.115 50.9609V51.4609ZM109.703 53.8779L109.465 54.318C112.35 55.8739 114.697 57.9861 116.513 60.658L116.927 60.377L117.34 60.0959C115.433 57.2893 112.964 55.0689 109.94 53.4379L109.703 53.8779ZM120.096 58.1748L119.823 57.7556L118.212 58.8029L118.484 59.2222L118.757 59.6414L120.368 58.594L120.096 58.1748ZM118.484 59.2222L118.897 58.9403C116.81 55.8829 114.108 53.4656 110.798 51.6916L110.562 52.1323L110.326 52.573C113.497 54.2723 116.076 56.5816 118.071 59.5041L118.484 59.2222ZM110.562 52.1323L110.799 51.6922C107.502 49.9153 103.938 49.0273 100.115 49.0273V49.5273V50.0273C103.776 50.0273 107.177 50.876 110.325 52.5725L110.562 52.1323ZM100.115 49.5273V49.0273C97.0399 49.0273 94.0904 49.6318 91.2708 50.8402L91.4678 51.2998L91.6647 51.7594C94.3595 50.6045 97.1749 50.0273 100.115 50.0273V49.5273ZM91.4678 51.2998L91.2723 50.8396C88.4775 52.0269 86.0597 53.6375 84.0244 55.6728L84.3779 56.0264L84.7315 56.3799C86.6708 54.4406 88.9795 52.9002 91.6633 51.76L91.4678 51.2998ZM84.3779 56.0264L84.0244 55.6728C81.9891 57.7081 80.3699 60.1345 79.1649 62.9461L79.6245 63.1431L80.0841 63.34C81.2424 60.6374 82.7921 58.3193 84.7315 56.3799L84.3779 56.0264ZM79.6245 63.1431L79.1643 62.9476C77.974 65.7493 77.3789 68.6894 77.3789 71.7637H77.8789H78.3789C78.3789 68.8223 78.9475 66.0153 80.0847 63.3386L79.6245 63.1431ZM77.8789 71.7637H77.3789C77.3789 74.8379 77.974 77.7866 79.1639 80.6056L79.6245 80.4111L80.0852 80.2167C78.9475 77.5214 78.3789 74.705 78.3789 71.7637H77.8789ZM79.6245 80.4111L79.1654 80.6092C80.3705 83.4029 81.9897 85.8198 84.0244 87.8545L84.3779 87.501L84.7315 87.1474C82.7916 85.2075 81.2418 82.8979 80.0836 80.2131L79.6245 80.4111ZM84.3779 87.501L84.0244 87.8545C86.0591 89.8892 88.476 91.5084 91.2697 92.7135L91.4678 92.2544L91.6658 91.7953C88.981 90.6371 86.6714 89.0873 84.7315 87.1474L84.3779 87.501ZM91.4678 92.2544L91.2733 92.715C94.0924 93.9049 97.041 94.5 100.115 94.5V94V93.5C97.1739 93.5 94.3575 92.9314 91.6622 91.7937L91.4678 92.2544ZM100.115 94V94.5C103.939 94.5 107.512 93.6026 110.827 91.8079L110.589 91.3682L110.351 90.9285C107.185 92.6428 103.775 93.5 100.115 93.5V94ZM110.589 91.3682L110.827 91.8079C114.136 90.0161 116.837 87.5903 118.924 84.5334L118.511 84.2515L118.098 83.9696C116.103 86.8925 113.523 89.2111 110.351 90.9285L110.589 91.3682ZM118.511 84.2515L118.209 84.6498L119.767 85.8315L120.069 85.4331L120.371 85.0348L118.813 83.8531L118.511 84.2515ZM120.069 85.4331L119.657 85.1495C117.483 88.3058 114.678 90.813 111.237 92.674L111.475 93.1138L111.713 93.5536C115.29 91.619 118.215 89.0058 120.481 85.7168L120.069 85.4331ZM111.475 93.1138L111.239 92.673C107.804 94.5132 104.099 95.4336 100.115 95.4336V95.9336V96.4336C104.26 96.4336 108.128 95.4741 111.711 93.5545L111.475 93.1138ZM100.115 95.9336V95.4336C96.9065 95.4336 93.8408 94.8028 90.9138 93.5409L90.7158 94L90.5179 94.4591C93.5707 95.7753 96.7712 96.4336 100.115 96.4336V95.9336ZM90.7158 94L90.9124 93.5403C87.9949 92.2924 85.4794 90.617 83.3604 88.5156L83.0083 88.8706L82.6562 89.2256C84.8699 91.421 87.4927 93.1653 90.5192 94.4597L90.7158 94ZM83.0083 88.8706L83.3633 88.5185C81.2613 86.399 79.5766 83.8826 78.3108 80.9641L77.8521 81.1631L77.3933 81.362C78.7056 84.3875 80.4584 87.0095 82.6533 89.2227L83.0083 88.8706ZM77.8521 81.1631L78.3122 80.9675C77.0676 78.04 76.4453 74.9734 76.4453 71.7637H75.9453H75.4453C75.4453 75.1067 76.0942 78.3064 77.3919 81.3587L77.8521 81.1631ZM75.9453 71.7637H76.4453C76.4453 68.554 77.0676 65.4967 78.3118 62.5877L77.8521 62.3911L77.3923 62.1945C76.0942 65.2295 75.4453 68.4207 75.4453 71.7637H75.9453ZM77.8521 62.3911L78.3112 62.5891C79.577 59.653 81.2613 57.1377 83.3619 55.0371L83.0083 54.6836L82.6547 54.33C80.4585 56.5263 78.7052 59.1494 77.3929 62.1932L77.8521 62.3911ZM83.0083 54.6836L83.3619 55.0371C85.4807 52.9183 87.9958 51.2346 90.9124 49.9871L90.7158 49.5273L90.5192 49.0676C87.4919 50.3625 84.8686 52.1162 82.6547 54.33L83.0083 54.6836ZM90.7158 49.5273L90.9138 49.9865C93.8408 48.7246 96.9065 48.0938 100.115 48.0938V47.5938V47.0938C96.7712 47.0938 93.5707 47.752 90.5179 49.0682L90.7158 49.5273ZM100.115 47.5938V48.0938C104.116 48.0938 107.83 49.0229 111.264 50.8802L111.502 50.4404L111.74 50.0006C108.156 48.0624 104.278 47.0938 100.115 47.0938V47.5938ZM111.502 50.4404L111.264 50.8802C114.704 52.7405 117.508 55.2647 119.682 58.4563L120.096 58.1748L120.509 57.8933C118.243 54.568 115.318 51.9359 111.74 50.0006L111.502 50.4404ZM157.398 64.7275L157.674 65.1446L158.094 64.8665L157.813 64.4482L157.398 64.7275ZM155.813 65.7749L155.399 66.0546L155.676 66.4651L156.089 66.192L155.813 65.7749ZM152.027 62.3911L151.787 62.8299L151.793 62.8331L152.027 62.3911ZM139.485 79.2832L139.132 79.6368L139.485 79.2832ZM152.027 81.1362L151.789 80.6963L151.787 80.6975L152.027 81.1362ZM155.813 77.7256L156.107 77.3206L155.688 77.0175L155.399 77.4458L155.813 77.7256ZM157.371 78.8535L157.784 79.1349L158.058 78.7334L157.664 78.4485L157.371 78.8535ZM142.117 83.3384L141.92 83.7977L141.922 83.7985L142.117 83.3384ZM135.43 76.6514L134.97 76.8471L134.971 76.849L135.43 76.6514ZM135.43 66.9028L135.889 67.1004L135.89 67.0985L135.43 66.9028ZM142.117 60.189L141.922 59.7288L141.92 59.7297L142.117 60.189ZM152.94 60.6992L152.699 61.1375L152.703 61.1393L152.94 60.6992ZM160.594 62.5254L160.866 62.9446L161.294 62.6669L161.008 62.245L160.594 62.5254ZM158.982 63.5728L158.57 63.8554L158.846 64.2579L159.255 63.992L158.982 63.5728ZM153.826 58.9805L153.586 59.4192L153.591 59.4215L153.826 58.9805ZM139.727 59.2222L139.978 59.6546L139.981 59.653L139.727 59.2222ZM134.437 64.4858L134.006 64.2322L134.004 64.2348L134.437 64.4858ZM134.437 79.0415L134.004 79.2926L134.006 79.2952L134.437 79.0415ZM139.727 84.332L139.473 84.7629L139.476 84.7644L139.727 84.332ZM159.009 79.9009L159.295 79.4903L158.88 79.2018L158.596 79.62L159.009 79.9009ZM160.594 81.002L161.008 81.2824L161.285 80.8733L160.879 80.5914L160.594 81.002ZM154.739 86.2656L154.503 85.8252L154.501 85.8259L154.739 86.2656ZM138.76 85.9971L138.509 86.4293L138.76 85.9971ZM154.739 57.2617L154.501 57.7014L154.503 57.7022L154.739 57.2617ZM163.816 60.377L164.089 60.7962L164.517 60.518L164.23 60.0959L163.816 60.377ZM162.205 61.4243L161.792 61.7058L162.067 62.1102L162.478 61.8435L162.205 61.4243ZM155.652 55.5698L155.414 56.0091L155.417 56.011L155.652 55.5698ZM133.98 58.7656L133.626 58.4121L133.98 58.7656ZM133.98 84.7886L133.624 85.1402L133.628 85.1441L133.98 84.7886ZM162.205 82.0762L162.503 81.6745L162.085 81.3646L161.792 81.7947L162.205 82.0762ZM163.763 83.231L164.175 83.5133L164.447 83.116L164.06 82.8293L163.763 83.231ZM156.539 89.7031L156.775 90.1437L156.776 90.1432L156.539 89.7031ZM136.827 89.354L136.574 89.7854L136.576 89.7864L136.827 89.354ZM129.415 81.9419L128.982 82.1929L128.983 82.1948L129.415 81.9419ZM129.415 61.5854L128.983 61.3326L128.982 61.3344L129.415 61.5854ZM136.827 54.2002L137.078 54.6326L137.08 54.6315L136.827 54.2002ZM156.592 53.8779L156.353 54.3169L156.355 54.318L156.592 53.8779ZM166.985 58.1748L167.258 58.594L167.686 58.3156L167.399 57.8933L166.985 58.1748ZM165.374 59.2222L164.961 59.5041L165.237 59.9078L165.647 59.6414L165.374 59.2222ZM157.452 52.1323L157.214 52.5725L157.215 52.573L157.452 52.1323ZM138.357 51.2998L138.553 51.76L138.554 51.7594L138.357 51.2998ZM126.514 63.1431L126.055 62.9461L126.054 62.9476L126.514 63.1431ZM126.514 80.4111L126.053 80.6056L126.055 80.6092L126.514 80.4111ZM138.357 92.2544L138.159 92.7135L138.163 92.715L138.357 92.2544ZM165.401 84.2515L165.703 83.8531L165.284 83.5354L164.988 83.9696L165.401 84.2515ZM166.958 85.4331L167.37 85.7168L167.641 85.3234L167.261 85.0348L166.958 85.4331ZM158.365 93.1138L158.601 93.5545L158.603 93.5536L158.365 93.1138ZM137.605 94L137.803 93.5409L137.802 93.5403L137.605 94ZM129.898 88.8706L129.543 89.2227L129.546 89.2256L129.898 88.8706ZM124.742 81.1631L124.282 81.3587L124.283 81.362L124.742 81.1631ZM124.742 62.3911L124.283 62.1932L124.282 62.1945L124.742 62.3911ZM137.605 49.5273L137.802 49.9871L137.803 49.9865L137.605 49.5273ZM157.398 64.7275L157.122 64.3104L155.538 65.3578L155.813 65.7749L156.089 66.192L157.674 65.1446L157.398 64.7275ZM155.813 65.7749L156.228 65.4952C155.214 63.9934 153.889 62.8103 152.261 61.9491L152.027 62.3911L151.793 62.8331C153.28 63.6191 154.479 64.6919 155.399 66.0546L155.813 65.7749ZM152.027 62.3911L152.267 61.9524C150.651 61.0694 148.894 60.6289 147.005 60.6289V61.1289V61.6289C148.732 61.6289 150.323 62.0298 151.787 62.8299L152.027 62.3911ZM147.005 61.1289V60.6289C143.936 60.6289 141.302 61.72 139.132 63.8906L139.485 64.2441L139.839 64.5977C141.822 62.6146 144.201 61.6289 147.005 61.6289V61.1289ZM139.485 64.2441L139.132 63.8906C136.961 66.0611 135.87 68.6948 135.87 71.7637H136.37H136.87C136.87 68.9601 137.856 66.5808 139.839 64.5977L139.485 64.2441ZM136.37 71.7637H135.87C135.87 74.8325 136.961 77.4662 139.132 79.6368L139.485 79.2832L139.839 78.9296C137.856 76.9466 136.87 74.5672 136.87 71.7637H136.37ZM139.485 79.2832L139.132 79.6368C141.302 81.8073 143.936 82.8984 147.005 82.8984V82.3984V81.8984C144.201 81.8984 141.822 80.9127 139.839 78.9296L139.485 79.2832ZM147.005 82.3984V82.8984C148.894 82.8984 150.651 82.4579 152.267 81.575L152.027 81.1362L151.787 80.6975C150.323 81.4975 148.732 81.8984 147.005 81.8984V82.3984ZM152.027 81.1362L152.265 81.5761C153.891 80.6973 155.215 79.5062 156.228 78.0053L155.813 77.7256L155.399 77.4458C154.479 78.8096 153.278 79.8922 151.789 80.6963L152.027 81.1362ZM155.813 77.7256L155.52 78.1306L157.078 79.2585L157.371 78.8535L157.664 78.4485L156.107 77.3206L155.813 77.7256ZM157.371 78.8535L156.958 78.5721C155.858 80.1875 154.433 81.4675 152.676 82.4149L152.913 82.855L153.15 83.2951C155.046 82.2731 156.593 80.8854 157.784 79.1349L157.371 78.8535ZM152.913 82.855L152.676 82.4149C150.924 83.3595 149.036 83.832 147.005 83.832V84.332V84.832C149.199 84.832 151.25 84.3198 153.15 83.2951L152.913 82.855ZM147.005 84.332V83.832C145.371 83.832 143.808 83.5142 142.313 82.8783L142.117 83.3384L141.922 83.7985C143.541 84.4874 145.237 84.832 147.005 84.832V84.332ZM142.117 83.3384L142.315 82.8791C140.83 82.2404 139.55 81.3801 138.469 80.2993L138.116 80.6528L137.762 81.0064C138.937 82.1814 140.325 83.1115 141.92 83.7977L142.117 83.3384ZM138.116 80.6528L138.469 80.2993C137.388 79.2184 136.528 77.9383 135.889 76.4538L135.43 76.6514L134.971 76.849C135.657 78.4439 136.587 79.8314 137.762 81.0064L138.116 80.6528ZM135.43 76.6514L135.89 76.4557C135.254 74.9603 134.937 73.3976 134.937 71.7637H134.437H133.937C133.937 73.5314 134.281 75.2272 134.97 76.847L135.43 76.6514ZM134.437 71.7637H134.937C134.937 70.1297 135.254 68.5768 135.889 67.1004L135.43 66.9028L134.971 66.7052C134.281 68.3083 133.937 69.9959 133.937 71.7637H134.437ZM135.43 66.9028L135.89 67.0985C136.529 65.5962 137.389 64.308 138.469 63.2281L138.116 62.8745L137.762 62.521C136.586 63.6969 135.656 65.0942 134.97 66.7071L135.43 66.9028ZM138.116 62.8745L138.469 63.2281C139.55 62.1472 140.83 61.2869 142.315 60.6483L142.117 60.189L141.92 59.7297C140.325 60.4159 138.937 61.346 137.762 62.521L138.116 62.8745ZM142.117 60.189L142.313 60.6491C143.808 60.0131 145.371 59.6953 147.005 59.6953V59.1953V58.6953C145.237 58.6953 143.541 59.04 141.922 59.7288L142.117 60.189ZM147.005 59.1953V59.6953C149.053 59.6953 150.949 60.1763 152.699 61.1375L152.94 60.6992L153.181 60.2609C151.279 59.2169 149.218 58.6953 147.005 58.6953V59.1953ZM152.94 60.6992L152.703 61.1393C154.458 62.0861 155.883 63.374 156.983 65.0069L157.398 64.7275L157.813 64.4482C156.621 62.6794 155.074 61.2818 153.177 60.2591L152.94 60.6992ZM160.594 62.5254L160.321 62.1062L158.71 63.1535L158.982 63.5728L159.255 63.992L160.866 62.9446L160.594 62.5254ZM158.982 63.5728L159.395 63.2901C158.024 61.2888 156.244 59.7043 154.062 58.5394L153.826 58.9805L153.591 59.4215C155.634 60.5125 157.292 61.9895 158.57 63.8554L158.982 63.5728ZM153.826 58.9805L154.066 58.5418C151.896 57.3546 149.539 56.7617 147.005 56.7617V57.2617V57.7617C149.376 57.7617 151.567 58.3147 153.586 59.4191L153.826 58.9805ZM147.005 57.2617V56.7617C144.286 56.7617 141.772 57.4381 139.473 58.7913L139.727 59.2222L139.981 59.653C142.122 58.3924 144.46 57.7617 147.005 57.7617V57.2617ZM139.727 59.2222L139.476 58.7898C137.181 60.1221 135.356 61.9384 134.006 64.2322L134.437 64.4858L134.867 64.7395C136.131 62.5932 137.833 60.9003 139.978 59.6546L139.727 59.2222ZM134.437 64.4858L134.004 64.2348C132.67 66.5331 132.003 69.046 132.003 71.7637H132.503H133.003C133.003 69.2177 133.625 66.8787 134.869 64.7369L134.437 64.4858ZM132.503 71.7637H132.003C132.003 74.4814 132.67 76.9943 134.004 79.2926L134.437 79.0415L134.869 78.7904C133.625 76.6486 133.003 74.3096 133.003 71.7637H132.503ZM134.437 79.0415L134.006 79.2952C135.356 81.5884 137.18 83.4129 139.473 84.7629L139.727 84.332L139.981 83.9012C137.834 82.6373 136.131 80.9347 134.867 78.7878L134.437 79.0415ZM139.727 84.332L139.476 84.7644C141.774 86.0989 144.287 86.7656 147.005 86.7656V86.2656V85.7656C144.459 85.7656 142.12 85.1433 139.978 83.8996L139.727 84.332ZM147.005 86.2656V86.7656C149.539 86.7656 151.904 86.1728 154.091 84.9864L153.853 84.5469L153.615 84.1074C151.577 85.2127 149.376 85.7656 147.005 85.7656V86.2656ZM153.853 84.5469L154.091 84.9864C156.273 83.8032 158.052 82.2007 159.423 80.1817L159.009 79.9009L158.596 79.62C157.317 81.5041 155.658 82.9989 153.615 84.1074L153.853 84.5469ZM159.009 79.9009L158.724 80.3115L160.308 81.4125L160.594 81.002L160.879 80.5914L159.295 79.4903L159.009 79.9009ZM160.594 81.002L160.18 80.7215C158.722 82.8736 156.832 84.5737 154.503 85.8252L154.739 86.2656L154.976 86.7061C157.445 85.3794 159.458 83.5704 161.008 81.2824L160.594 81.002ZM154.739 86.2656L154.501 85.8259C152.195 87.0744 149.699 87.6992 147.005 87.6992V88.1992V88.6992C149.861 88.6992 152.521 88.035 154.977 86.7053L154.739 86.2656ZM147.005 88.1992V87.6992C144.12 87.6992 141.458 86.9877 139.012 85.5648L138.76 85.9971L138.509 86.4293C141.111 87.9426 143.946 88.6992 147.005 88.6992V88.1992ZM138.76 85.9971L139.012 85.5648C136.562 84.1403 134.628 82.2064 133.204 79.7569L132.771 80.0083L132.339 80.2597C133.851 82.859 135.91 84.9176 138.509 86.4293L138.76 85.9971ZM132.771 80.0083L133.204 79.7569C131.781 77.3103 131.069 74.649 131.069 71.7637H130.569H130.069C130.069 74.8223 130.826 77.6575 132.339 80.2597L132.771 80.0083ZM130.569 71.7637H131.069C131.069 68.8783 131.781 66.2171 133.204 63.7704L132.771 63.519L132.339 63.2677C130.826 65.8698 130.069 68.705 130.069 71.7637H130.569ZM132.771 63.519L133.204 63.7704C134.628 61.3209 136.562 59.387 139.012 57.9625L138.76 57.5303L138.509 57.0981C135.91 58.6097 133.851 60.6683 132.339 63.2677L132.771 63.519ZM138.76 57.5303L139.012 57.9625C141.458 56.5396 144.12 55.8281 147.005 55.8281V55.3281V54.8281C143.946 54.8281 141.111 55.5847 138.509 57.0981L138.76 57.5303ZM147.005 55.3281V55.8281C149.699 55.8281 152.195 56.4529 154.501 57.7014L154.739 57.2617L154.977 56.822C152.521 55.4924 149.861 54.8281 147.005 54.8281V55.3281ZM154.739 57.2617L154.503 57.7022C156.832 58.9536 158.722 60.6537 160.18 62.8058L160.594 62.5254L161.008 62.245C159.458 59.957 157.445 58.1479 154.976 56.8213L154.739 57.2617ZM163.816 60.377L163.544 59.9577L161.933 61.0051L162.205 61.4243L162.478 61.8435L164.089 60.7962L163.816 60.377ZM162.205 61.4243L162.618 61.1428C160.889 58.604 158.643 56.5983 155.888 55.1286L155.652 55.5698L155.417 56.011C158.033 57.406 160.155 59.3032 161.792 61.7058L162.205 61.4243ZM155.652 55.5698L155.891 55.1305C153.149 53.6397 150.184 52.8945 147.005 52.8945V53.3945V53.8945C150.021 53.8945 152.821 54.5996 155.414 56.0091L155.652 55.5698ZM147.005 53.3945V52.8945C144.45 52.8945 142.002 53.3913 139.666 54.3846L139.861 54.8447L140.057 55.3049C142.268 54.3646 144.583 53.8945 147.005 53.8945V53.3945ZM139.861 54.8447L139.666 54.3846C137.337 55.3749 135.322 56.7169 133.626 58.4121L133.98 58.7656L134.334 59.1192C135.933 57.5201 137.839 56.2481 140.057 55.3049L139.861 54.8447ZM133.98 58.7656L133.626 58.4121C131.949 60.0898 130.616 62.096 129.626 64.4245L130.086 64.6201L130.546 64.8158C131.49 62.5967 132.753 60.6999 134.334 59.1192L133.98 58.7656ZM130.086 64.6201L129.626 64.4245C128.633 66.7606 128.136 69.2083 128.136 71.7637H128.636H129.136C129.136 69.3418 129.606 67.0272 130.546 64.8158L130.086 64.6201ZM128.636 71.7637H128.136C128.136 74.319 128.633 76.7668 129.626 79.1029L130.086 78.9072L130.546 78.7116C129.606 76.5001 129.136 74.1855 129.136 71.7637H128.636ZM130.086 78.9072L129.626 79.1029C130.616 81.4309 131.948 83.4452 133.625 85.1402L133.98 84.7886L134.335 84.437C132.754 82.8377 131.49 80.9311 130.546 78.7116L130.086 78.9072ZM133.98 84.7886L133.628 85.1441C135.323 86.8206 137.338 88.1529 139.666 89.1428L139.861 88.6826L140.057 88.2225C137.837 87.2787 135.931 86.015 134.332 84.4331L133.98 84.7886ZM139.861 88.6826L139.666 89.1428C142.002 90.136 144.45 90.6328 147.005 90.6328V90.1328V89.6328C144.583 89.6328 142.268 89.1628 140.057 88.2225L139.861 88.6826ZM147.005 90.1328V90.6328C150.201 90.6328 153.175 89.8879 155.918 88.3968L155.679 87.9575L155.44 87.5182C152.848 88.9275 150.039 89.6328 147.005 89.6328V90.1328ZM155.679 87.9575L155.918 88.3968C158.654 86.9092 160.89 84.8951 162.618 82.3577L162.205 82.0762L161.792 81.7947C160.154 84.1986 158.039 86.1054 155.44 87.5182L155.679 87.9575ZM162.205 82.0762L161.907 82.4778L163.465 83.6326L163.763 83.231L164.06 82.8293L162.503 81.6745L162.205 82.0762ZM163.763 83.231L163.35 82.9486C161.534 85.603 159.186 87.7068 156.301 89.2631L156.539 89.7031L156.776 90.1432C159.799 88.5126 162.268 86.3017 164.175 83.5133L163.763 83.231ZM156.539 89.7031L156.302 89.2625C153.441 90.798 150.344 91.5664 147.005 91.5664V92.0664V92.5664C150.505 92.5664 153.764 91.7593 156.775 90.1437L156.539 89.7031ZM147.005 92.0664V91.5664C143.421 91.5664 140.115 90.6847 137.078 88.9216L136.827 89.354L136.576 89.7864C139.769 91.6398 143.248 92.5664 147.005 92.5664V92.0664ZM136.827 89.354L137.08 88.9227C134.038 87.1397 131.629 84.7305 129.846 81.689L129.415 81.9419L128.983 82.1948C130.853 85.3838 133.385 87.9159 136.574 89.7854L136.827 89.354ZM129.415 81.9419L129.847 81.6909C128.084 78.6534 127.202 75.3475 127.202 71.7637H126.702H126.202C126.202 75.5203 127.129 78.9999 128.982 82.1929L129.415 81.9419ZM126.702 71.7637H127.202C127.202 68.1798 128.084 64.8739 129.847 61.8365L129.415 61.5854L128.982 61.3344C127.129 64.5274 126.202 68.007 126.202 71.7637H126.702ZM129.415 61.5854L129.846 61.8383C131.629 58.7973 134.037 56.3975 137.078 54.6326L136.827 54.2002L136.576 53.7678C133.386 55.6194 130.853 58.1431 128.983 61.3326L129.415 61.5854ZM136.827 54.2002L137.08 54.6315C140.117 52.8511 143.422 51.9609 147.005 51.9609V51.4609V50.9609C143.247 50.9609 139.767 51.897 136.574 53.7688L136.827 54.2002ZM147.005 51.4609V51.9609C150.361 51.9609 153.474 52.7465 156.353 54.3169L156.592 53.8779L156.832 53.439C153.803 51.7867 150.524 50.9609 147.005 50.9609V51.4609ZM156.592 53.8779L156.355 54.318C159.239 55.8739 161.587 57.9861 163.403 60.658L163.816 60.377L164.23 60.0959C162.322 57.2893 159.853 55.0689 156.83 53.4379L156.592 53.8779ZM166.985 58.1748L166.713 57.7556L165.102 58.8029L165.374 59.2222L165.647 59.6414L167.258 58.594L166.985 58.1748ZM165.374 59.2222L165.787 58.9403C163.7 55.8829 160.998 53.4656 157.688 51.6916L157.452 52.1323L157.215 52.573C160.386 54.2723 162.966 56.5816 164.961 59.5041L165.374 59.2222ZM157.452 52.1323L157.689 51.6922C154.392 49.9153 150.828 49.0273 147.005 49.0273V49.5273V50.0273C150.666 50.0273 154.066 50.876 157.214 52.5725L157.452 52.1323ZM147.005 49.5273V49.0273C143.93 49.0273 140.98 49.6318 138.16 50.8402L138.357 51.2998L138.554 51.7594C141.249 50.6045 144.065 50.0273 147.005 50.0273V49.5273ZM138.357 51.2998L138.162 50.8396C135.367 52.0269 132.949 53.6375 130.914 55.6728L131.268 56.0264L131.621 56.3799C133.56 54.4406 135.869 52.9002 138.553 51.76L138.357 51.2998ZM131.268 56.0264L130.914 55.6728C128.879 57.7081 127.26 60.1345 126.055 62.9461L126.514 63.1431L126.974 63.34C128.132 60.6374 129.682 58.3193 131.621 56.3799L131.268 56.0264ZM126.514 63.1431L126.054 62.9476C124.864 65.7493 124.269 68.6894 124.269 71.7637H124.769H125.269C125.269 68.8223 125.837 66.0153 126.974 63.3386L126.514 63.1431ZM124.769 71.7637H124.269C124.269 74.8379 124.864 77.7866 126.054 80.6056L126.514 80.4111L126.975 80.2167C125.837 77.5214 125.269 74.705 125.269 71.7637H124.769ZM126.514 80.4111L126.055 80.6092C127.26 83.4029 128.879 85.8198 130.914 87.8545L131.268 87.501L131.621 87.1474C129.681 85.2075 128.131 82.8979 126.973 80.2131L126.514 80.4111ZM131.268 87.501L130.914 87.8545C132.949 89.8892 135.366 91.5084 138.159 92.7135L138.357 92.2544L138.555 91.7953C135.871 90.6371 133.561 89.0873 131.621 87.1474L131.268 87.501ZM138.357 92.2544L138.163 92.715C140.982 93.9049 143.931 94.5 147.005 94.5V94V93.5C144.064 93.5 141.247 92.9314 138.552 91.7937L138.357 92.2544ZM147.005 94V94.5C150.829 94.5 154.402 93.6026 157.717 91.8079L157.479 91.3682L157.24 90.9285C154.074 92.6428 150.665 93.5 147.005 93.5V94ZM157.479 91.3682L157.717 91.8079C161.026 90.0161 163.727 87.5903 165.814 84.5334L165.401 84.2515L164.988 83.9696C162.993 86.8925 160.412 89.2111 157.24 90.9285L157.479 91.3682ZM165.401 84.2515L165.099 84.6498L166.656 85.8315L166.958 85.4331L167.261 85.0348L165.703 83.8531L165.401 84.2515ZM166.958 85.4331L166.547 85.1495C164.372 88.3058 161.568 90.813 158.127 92.674L158.365 93.1138L158.603 93.5536C162.18 91.619 165.104 89.0058 167.37 85.7168L166.958 85.4331ZM158.365 93.1138L158.129 92.673C154.694 94.5132 150.988 95.4336 147.005 95.4336V95.9336V96.4336C151.15 96.4336 155.018 95.4741 158.601 93.5545L158.365 93.1138ZM147.005 95.9336V95.4336C143.796 95.4336 140.73 94.8028 137.803 93.5409L137.605 94L137.408 94.4591C140.46 95.7753 143.661 96.4336 147.005 96.4336V95.9336ZM137.605 94L137.802 93.5403C134.885 92.2924 132.369 90.617 130.25 88.5156L129.898 88.8706L129.546 89.2256C131.76 91.421 134.382 93.1653 137.409 94.4597L137.605 94ZM129.898 88.8706L130.253 88.5185C128.151 86.399 126.466 83.8826 125.2 80.9641L124.742 81.1631L124.283 81.362C125.595 84.3875 127.348 87.0095 129.543 89.2227L129.898 88.8706ZM124.742 81.1631L125.202 80.9675C123.957 78.04 123.335 74.9734 123.335 71.7637H122.835H122.335C122.335 75.1067 122.984 78.3064 124.282 81.3587L124.742 81.1631ZM122.835 71.7637H123.335C123.335 68.554 123.957 65.4967 125.201 62.5877L124.742 62.3911L124.282 62.1945C122.984 65.2295 122.335 68.4207 122.335 71.7637H122.835ZM124.742 62.3911L125.201 62.5891C126.467 59.653 128.151 57.1377 130.252 55.0371L129.898 54.6836L129.544 54.33C127.348 56.5263 125.595 59.1494 124.283 62.1932L124.742 62.3911ZM129.898 54.6836L130.252 55.0371C132.37 52.9183 134.885 51.2346 137.802 49.9871L137.605 49.5273L137.409 49.0676C134.382 50.3625 131.758 52.1162 129.544 54.33L129.898 54.6836ZM137.605 49.5273L137.803 49.9865C140.73 48.7246 143.796 48.0938 147.005 48.0938V47.5938V47.0938C143.661 47.0938 140.46 47.752 137.408 49.0682L137.605 49.5273ZM147.005 47.5938V48.0938C151.006 48.0938 154.719 49.0229 158.154 50.8802L158.392 50.4404L158.629 50.0006C155.046 48.0624 151.168 47.0938 147.005 47.0938V47.5938ZM158.392 50.4404L158.154 50.8802C161.593 52.7405 164.398 55.2647 166.572 58.4563L166.985 58.1748L167.399 57.8933C165.133 54.568 162.208 51.9359 158.629 50.0006L158.392 50.4404Z" fill="#49204D"/>
<path d="M44.6141 135V131.931H47.8481V113.649L48.1451 112.494H53.8541V131.931H56.0981V135H44.6141ZM37.4201 128.268V125.133L38.6411 124.836H58.3421V128.268H37.4201ZM37.4201 125.133L48.1451 112.494L48.0791 117.807L41.8421 125.133H37.4201ZM72.3328 135.33C70.1768 135.33 68.2738 134.879 66.6238 133.977C64.9958 133.053 63.7198 131.733 62.7958 130.017C61.8718 128.279 61.4098 126.189 61.4098 123.747C61.4098 121.305 61.8718 119.226 62.7958 117.51C63.7198 115.772 64.9958 114.452 66.6238 113.55C68.2738 112.626 70.1768 112.164 72.3328 112.164C74.5108 112.164 76.4138 112.626 78.0418 113.55C79.6698 114.452 80.9458 115.772 81.8698 117.51C82.7938 119.226 83.2558 121.305 83.2558 123.747C83.2558 126.189 82.7938 128.279 81.8698 130.017C80.9458 131.733 79.6698 133.053 78.0418 133.977C76.4138 134.879 74.5108 135.33 72.3328 135.33ZM72.3328 132.063C73.2348 132.063 73.9938 131.744 74.6098 131.106C75.2478 130.446 75.7318 129.5 76.0618 128.268C76.4138 127.036 76.5898 125.529 76.5898 123.747C76.5898 121.965 76.4138 120.458 76.0618 119.226C75.7318 117.994 75.2478 117.059 74.6098 116.421C73.9938 115.761 73.2348 115.431 72.3328 115.431C71.4528 115.431 70.6938 115.761 70.0558 116.421C69.4178 117.059 68.9228 117.994 68.5708 119.226C68.2408 120.458 68.0758 121.965 68.0758 123.747C68.0758 125.529 68.2408 127.036 68.5708 128.268C68.9228 129.5 69.4178 130.446 70.0558 131.106C70.6938 131.744 71.4528 132.063 72.3328 132.063ZM99.3528 124.044C98.4728 124.044 97.6918 123.824 97.0098 123.384C96.3498 122.922 96.0198 122.218 96.0198 121.272C96.0198 120.392 96.3938 119.655 97.1418 119.061C97.8898 118.467 98.8798 118.027 100.112 117.741C101.344 117.433 102.631 117.279 103.973 117.279C106.261 117.279 108.01 117.741 109.22 118.665C110.43 119.589 111.024 120.975 111.002 122.823L105.458 122.163C105.458 121.393 105.194 120.843 104.666 120.513C104.16 120.161 103.489 119.985 102.653 119.985C102.103 119.985 101.564 120.051 101.036 120.183C100.53 120.315 100.101 120.535 99.7488 120.843C99.3968 121.151 99.1548 121.569 99.0228 122.097L99.1548 119.49C100.101 119.534 100.849 119.732 101.399 120.084C101.971 120.436 102.246 120.975 102.224 121.701C102.202 122.383 101.938 122.944 101.432 123.384C100.948 123.824 100.255 124.044 99.3528 124.044ZM111.596 135.429C109.748 135.429 108.362 134.945 107.438 133.977C106.514 133.009 106.052 131.645 106.052 129.885V129.357H105.392V125.562H105.227L105.458 123.747V122.163L111.002 122.823V130.413C111.002 130.809 111.101 131.128 111.299 131.37C111.519 131.612 111.816 131.733 112.19 131.733C112.564 131.733 112.85 131.612 113.048 131.37C113.246 131.128 113.345 130.809 113.345 130.413V125.496H116.975V129.984C116.975 131.634 116.524 132.954 115.622 133.944C114.742 134.934 113.4 135.429 111.596 135.429ZM100.277 135.363C98.5388 135.363 97.1308 134.945 96.0528 134.109C94.9748 133.251 94.4358 132.107 94.4358 130.677C94.4358 129.643 94.6558 128.785 95.0958 128.103C95.5358 127.421 96.1518 126.86 96.9438 126.42C97.7578 125.958 98.6818 125.595 99.7158 125.331L102.818 124.539C103.412 124.385 103.907 124.209 104.303 124.011C104.699 123.813 104.985 123.571 105.161 123.285C105.359 122.977 105.458 122.603 105.458 122.163L105.524 125.562H105.392C105.238 125.914 105.007 126.189 104.699 126.387C104.391 126.585 104.006 126.772 103.544 126.948L102.917 127.179C102.433 127.355 102.015 127.542 101.663 127.74C101.311 127.938 101.036 128.169 100.838 128.433C100.662 128.675 100.574 129.005 100.574 129.423C100.574 129.995 100.772 130.435 101.168 130.743C101.564 131.029 102.092 131.172 102.752 131.172C103.192 131.172 103.61 131.084 104.006 130.908C104.402 130.71 104.732 130.391 104.996 129.951C105.26 129.489 105.392 128.884 105.392 128.136L106.58 128.268C106.58 129.962 106.294 131.337 105.722 132.393C105.15 133.427 104.38 134.186 103.412 134.67C102.466 135.132 101.421 135.363 100.277 135.363ZM130.681 135V131.931H132.166V123.516C132.166 122.768 131.946 122.207 131.506 121.833C131.088 121.459 130.505 121.272 129.757 121.272C129.273 121.272 128.822 121.371 128.404 121.569C127.986 121.745 127.645 122.042 127.381 122.46C127.117 122.878 126.985 123.45 126.985 124.176L126.028 124.242C126.028 122.834 126.193 121.613 126.523 120.579C126.875 119.545 127.491 118.753 128.371 118.203C129.273 117.631 130.538 117.345 132.166 117.345C133.904 117.345 135.323 117.829 136.423 118.797C137.545 119.743 138.106 121.261 138.106 123.351V131.931H139.855V135H130.681ZM118.603 135V131.931H120.979V120.678H118.834V117.609H126.259V123.45L126.985 123.351V131.931H128.47V135H118.603ZM152.726 135.231C151.428 135.231 150.273 135.033 149.261 134.637C148.249 134.219 147.435 133.57 146.819 132.69C146.225 131.81 145.873 130.666 145.763 129.258H146.654C147.138 130.028 147.666 130.622 148.238 131.04C148.832 131.436 149.404 131.711 149.954 131.865C150.526 132.019 151.021 132.096 151.439 132.096C152.077 132.096 152.583 131.964 152.957 131.7C153.331 131.414 153.518 131.04 153.518 130.578C153.518 130.248 153.43 129.984 153.254 129.786C153.1 129.566 152.847 129.39 152.495 129.258C152.143 129.104 151.692 128.994 151.142 128.928L149.096 128.598C147.688 128.356 146.5 127.993 145.532 127.509C144.564 127.025 143.816 126.376 143.288 125.562C142.782 124.748 142.529 123.747 142.529 122.559C142.529 120.799 143.079 119.49 144.179 118.632C145.301 117.774 146.72 117.345 148.436 117.345C149.624 117.345 150.691 117.543 151.637 117.939C152.605 118.313 153.397 118.918 154.013 119.754C154.629 120.59 154.981 121.69 155.069 123.054H154.211C153.793 122.35 153.298 121.811 152.726 121.437C152.154 121.063 151.604 120.821 151.076 120.711C150.548 120.579 150.086 120.513 149.69 120.513C149.14 120.513 148.678 120.634 148.304 120.876C147.952 121.096 147.776 121.426 147.776 121.866C147.776 122.174 147.853 122.438 148.007 122.658C148.183 122.856 148.447 123.021 148.799 123.153C149.151 123.285 149.602 123.406 150.152 123.516L152.231 123.846C153.595 124.044 154.772 124.385 155.762 124.869C156.774 125.331 157.555 125.958 158.105 126.75C158.655 127.52 158.93 128.51 158.93 129.72C158.93 131.546 158.358 132.921 157.214 133.845C156.092 134.769 154.596 135.231 152.726 135.231ZM142.958 135V129.258H145.763L146.555 130.941V135H142.958ZM155.069 123.054L154.31 121.371V117.576H157.907V123.054H155.069Z" fill="#49204D"/>
</svg>
