<svg width="194" height="177" viewBox="0 0 194 177" fill="none" xmlns="http://www.w3.org/2000/svg">
<rect x="10" width="177" height="177" rx="25" fill="#ECB4EB"/>
<path d="M65.8778 74.72C62.0778 62.4 59.9178 56.24 59.3978 56.24C58.9178 56.24 57.2378 60.8 54.3578 69.92L52.9178 74.48C54.6778 74.2 56.6178 74.06 58.7378 74.06C60.8978 74.06 63.2778 74.28 65.8778 74.72ZM47.2178 79.46C44.4178 80.38 42.0178 81.82 40.0178 83.78C38.0578 85.74 37.0778 87.58 37.0778 89.3C37.0778 90.14 37.2778 90.8 37.6778 91.28C38.1178 91.72 38.6778 91.94 39.3578 91.94C41.5578 91.94 44.1778 87.78 47.2178 79.46ZM78.7778 91.88C78.7778 93.08 78.4578 94.06 77.8178 94.82C77.1778 95.54 76.3778 95.9 75.4178 95.9C73.6578 95.9 72.3178 94.6 71.3978 92C69.5978 86.64 68.1578 82.2 67.0778 78.68C64.0378 78.16 61.2578 77.9 58.7378 77.9C56.2578 77.9 53.9778 78.1 51.8978 78.5C49.2978 85.02 47.3778 89.26 46.1378 91.22C44.1378 94.34 41.8178 95.9 39.1778 95.9C37.3378 95.9 35.8778 95.28 34.7978 94.04C33.7178 92.8 33.1778 91.26 33.1778 89.42C33.1778 86.66 34.5778 83.88 37.3778 81.08C40.1778 78.28 43.8178 76.36 48.2978 75.32C50.0578 70.44 51.6978 65.62 53.2178 60.86C54.7778 56.1 55.6578 53.48 55.8578 53C56.6978 50.6 57.8578 49.4 59.3378 49.4C60.9778 49.4 62.1978 50.44 62.9978 52.52C63.1978 53.08 63.7578 54.74 64.6778 57.5L70.6178 75.5C72.2578 75.98 73.5978 76.6 74.6378 77.36C75.6778 78.12 76.1978 78.78 76.1978 79.34C76.1978 80.26 75.6978 80.72 74.6978 80.72C74.3378 80.72 73.3778 80.44 71.8178 79.88C73.5378 85.44 74.6578 88.62 75.1778 89.42C75.6978 90.22 76.1178 90.7 76.4378 90.86C76.7578 91.02 77.1178 91.14 77.5178 91.22C78.3578 91.38 78.7778 91.6 78.7778 91.88ZM103.281 49.1C107.721 49.1 111.361 50.34 114.201 52.82C117.041 55.3 118.461 58.2 118.461 61.52C118.461 64.12 117.641 66.28 116.001 68C114.361 69.68 112.421 70.52 110.181 70.52C107.941 70.52 106.061 69.8 104.541 68.36C103.021 66.84 102.261 65.22 102.261 63.5C102.261 61.74 102.641 60.28 103.401 59.12C104.161 57.96 105.081 57.38 106.161 57.38C106.761 57.38 107.261 57.56 107.661 57.92C108.061 58.24 108.261 58.66 108.261 59.18C108.261 59.66 107.981 60.3 107.421 61.1C106.861 61.86 106.581 62.68 106.581 63.56C106.581 64.4 106.921 65.12 107.601 65.72C108.281 66.28 109.161 66.56 110.241 66.56C111.361 66.56 112.281 66.14 113.001 65.3C113.761 64.42 114.141 63.26 114.141 61.82C114.141 59.7 113.181 57.76 111.261 56C109.421 54.2 106.761 53.3 103.281 53.3C99.0008 53.3 95.4808 55.2 92.7208 59C89.9608 62.76 88.5808 67.2 88.5808 72.32C88.5808 77.44 90.0208 81.96 92.9008 85.88C95.7808 89.76 99.4208 91.7 103.821 91.7C105.781 91.7 107.601 91.44 109.281 90.92C111.001 90.4 112.301 89.78 113.181 89.06C115.301 87.3 116.581 86.42 117.021 86.42C117.501 86.42 117.901 86.58 118.221 86.9C118.541 87.18 118.701 87.54 118.701 87.98C118.701 89.54 117.201 91.26 114.201 93.14C111.241 94.98 107.761 95.9 103.761 95.9C98.0008 95.9 93.2208 93.64 89.4208 89.12C85.6208 84.52 83.7208 78.96 83.7208 72.44C83.7208 65.88 85.5808 60.36 89.3008 55.88C93.0208 51.36 97.6808 49.1 103.281 49.1ZM143.945 49.1C148.385 49.1 152.025 50.34 154.865 52.82C157.705 55.3 159.125 58.2 159.125 61.52C159.125 64.12 158.305 66.28 156.665 68C155.025 69.68 153.085 70.52 150.845 70.52C148.605 70.52 146.725 69.8 145.205 68.36C143.685 66.84 142.925 65.22 142.925 63.5C142.925 61.74 143.305 60.28 144.065 59.12C144.825 57.96 145.745 57.38 146.825 57.38C147.425 57.38 147.925 57.56 148.325 57.92C148.725 58.24 148.925 58.66 148.925 59.18C148.925 59.66 148.645 60.3 148.085 61.1C147.525 61.86 147.245 62.68 147.245 63.56C147.245 64.4 147.585 65.12 148.265 65.72C148.945 66.28 149.825 66.56 150.905 66.56C152.025 66.56 152.945 66.14 153.665 65.3C154.425 64.42 154.805 63.26 154.805 61.82C154.805 59.7 153.845 57.76 151.925 56C150.085 54.2 147.425 53.3 143.945 53.3C139.665 53.3 136.145 55.2 133.385 59C130.625 62.76 129.245 67.2 129.245 72.32C129.245 77.44 130.685 81.96 133.565 85.88C136.445 89.76 140.085 91.7 144.485 91.7C146.445 91.7 148.265 91.44 149.945 90.92C151.665 90.4 152.965 89.78 153.845 89.06C155.965 87.3 157.245 86.42 157.685 86.42C158.165 86.42 158.565 86.58 158.885 86.9C159.205 87.18 159.365 87.54 159.365 87.98C159.365 89.54 157.865 91.26 154.865 93.14C151.905 94.98 148.425 95.9 144.425 95.9C138.665 95.9 133.885 93.64 130.085 89.12C126.285 84.52 124.385 78.96 124.385 72.44C124.385 65.88 126.245 60.36 129.965 55.88C133.685 51.36 138.345 49.1 143.945 49.1Z" fill="#49204D"/>
<path d="M65.8778 74.72L65.7944 75.213L66.5949 75.3485L66.3556 74.5726L65.8778 74.72ZM54.3578 69.92L53.881 69.7694L54.3578 69.92ZM52.9178 74.48L52.441 74.3294L52.1974 75.1009L52.9964 74.9738L52.9178 74.48ZM47.2178 79.46L47.6874 79.6316L48.0413 78.6631L47.0617 78.985L47.2178 79.46ZM40.0178 83.78L39.6678 83.4229L39.6643 83.4264L40.0178 83.78ZM37.6778 91.28L37.2937 91.6001L37.3082 91.6175L37.3243 91.6336L37.6778 91.28ZM77.8178 94.82L78.1917 95.1523L78.2003 95.1421L77.8178 94.82ZM71.3978 92L70.9238 92.1592L70.9265 92.1668L71.3978 92ZM67.0778 78.68L67.5558 78.5333L67.4655 78.2391L67.1621 78.1872L67.0778 78.68ZM51.8978 78.5L51.8034 78.009L51.5347 78.0607L51.4334 78.3148L51.8978 78.5ZM46.1378 91.22L46.5588 91.4898L46.5604 91.4873L46.1378 91.22ZM34.7978 94.04L35.1749 93.7116L34.7978 94.04ZM37.3778 81.08L37.7314 81.4336L37.3778 81.08ZM48.2978 75.32L48.4109 75.807L48.6759 75.7455L48.7682 75.4896L48.2978 75.32ZM53.2178 60.86L52.7427 60.7043L52.7415 60.7079L53.2178 60.86ZM55.8578 53L56.3194 53.1923L56.3249 53.1789L56.3297 53.1652L55.8578 53ZM62.9978 52.52L63.4688 52.3518L63.4645 52.3405L62.9978 52.52ZM64.6778 57.5L65.1526 57.3433L65.1522 57.3419L64.6778 57.5ZM70.6178 75.5L70.143 75.6567L70.2253 75.9061L70.4774 75.9799L70.6178 75.5ZM74.6378 77.36L74.9328 76.9563V76.9563L74.6378 77.36ZM71.8178 79.88L71.9867 79.4094L71.0442 79.071L71.3401 80.0278L71.8178 79.88ZM75.1778 89.42L74.7586 89.6925L75.1778 89.42ZM76.4378 90.86L76.2142 91.3072H76.2142L76.4378 90.86ZM77.5178 91.22L77.4198 91.7103L77.4243 91.7112L77.5178 91.22ZM65.8778 74.72L66.3556 74.5726C64.4552 68.4112 62.9629 63.7838 61.8796 60.6945C61.3386 59.1516 60.8963 57.9827 60.5538 57.1955C60.3836 56.8044 60.2313 56.4915 60.0977 56.2703C60.0321 56.1616 59.9592 56.055 59.8786 55.9694C59.8235 55.911 59.656 55.74 59.3978 55.74V56.24V56.74C59.2047 56.74 59.1149 56.6171 59.1505 56.6549C59.1605 56.6656 59.191 56.7034 59.2417 56.7872C59.3406 56.951 59.472 57.2156 59.6368 57.5945C59.9643 58.3473 60.397 59.4884 60.936 61.0254C62.0127 64.0962 63.5005 68.7088 65.4 74.8674L65.8778 74.72ZM59.3978 56.24V55.74C59.1783 55.74 59.0254 55.862 58.9583 55.9227C58.8775 55.9958 58.8079 56.0852 58.7489 56.1714C58.6291 56.3465 58.4996 56.5882 58.3609 56.881C58.0812 57.4716 57.73 58.3434 57.3086 59.4871C56.4644 61.7785 55.3216 65.2076 53.881 69.7694L54.3578 69.92L54.8346 70.0706C56.274 65.5124 57.4112 62.1015 58.247 59.8329C58.6656 58.6966 59.0045 57.8584 59.2647 57.309C59.396 57.0318 59.499 56.846 59.5742 56.7361C59.6127 56.6798 59.6313 56.6623 59.6292 56.6642C59.6274 56.6659 59.6102 56.6814 59.5777 56.6981C59.5448 56.715 59.4824 56.74 59.3978 56.74V56.24ZM54.3578 69.92L53.881 69.7694L52.441 74.3294L52.9178 74.48L53.3946 74.6306L54.8346 70.0706L54.3578 69.92ZM52.9178 74.48L52.9964 74.9738C54.7261 74.6986 56.6393 74.56 58.7378 74.56V74.06V73.56C56.5963 73.56 54.6296 73.7014 52.8393 73.9862L52.9178 74.48ZM58.7378 74.06V74.56C60.8645 74.56 63.2162 74.7767 65.7944 75.213L65.8778 74.72L65.9612 74.227C63.3395 73.7833 60.9311 73.56 58.7378 73.56V74.06ZM47.2178 79.46L47.0617 78.985C44.1928 79.9276 41.7255 81.4064 39.6679 83.4229L40.0178 83.78L40.3678 84.1371C42.3102 82.2336 44.6428 80.8324 47.3739 79.935L47.2178 79.46ZM40.0178 83.78L39.6643 83.4264C37.6655 85.4252 36.5778 87.3859 36.5778 89.3H37.0778H37.5778C37.5778 87.7741 38.4501 86.0548 40.3714 84.1336L40.0178 83.78ZM37.0778 89.3H36.5778C36.5778 90.2165 36.7965 91.0034 37.2937 91.6001L37.6778 91.28L38.0619 90.9599C37.7591 90.5966 37.5778 90.0634 37.5778 89.3H37.0778ZM37.6778 91.28L37.3243 91.6336C37.8672 92.1765 38.5588 92.44 39.3578 92.44V91.94V91.44C38.7969 91.44 38.3684 91.2635 38.0314 90.9264L37.6778 91.28ZM39.3578 91.94V92.44C40.0716 92.44 40.7598 92.1025 41.4132 91.5385C42.0678 90.9736 42.7272 90.1482 43.3959 89.0865C44.734 86.9618 46.1633 83.8029 47.6874 79.6316L47.2178 79.46L46.7482 79.2884C45.2323 83.4371 43.8316 86.5182 42.5497 88.5535C41.9084 89.5718 41.3103 90.3064 40.7599 90.7815C40.2084 91.2575 39.7441 91.44 39.3578 91.44V91.94ZM78.7778 91.88H78.2778C78.2778 92.9877 77.9845 93.8458 77.4354 94.4979L77.8178 94.82L78.2003 95.1421C78.9311 94.2742 79.2778 93.1723 79.2778 91.88H78.7778ZM77.8178 94.82L77.4441 94.4878C76.8986 95.1015 76.2344 95.4 75.4178 95.4V95.9V96.4C76.5212 96.4 77.457 95.9785 78.1915 95.1522L77.8178 94.82ZM75.4178 95.9V95.4C73.9818 95.4 72.7651 94.3653 71.8692 91.8332L71.3978 92L70.9265 92.1668C71.8705 94.8347 73.3338 96.4 75.4178 96.4V95.9ZM71.3978 92L71.8718 91.8408C70.0725 86.483 68.634 82.0476 67.5558 78.5333L67.0778 78.68L66.5998 78.8267C67.6816 82.3524 69.1231 86.797 70.9238 92.1592L71.3978 92ZM67.0778 78.68L67.1621 78.1872C64.1002 77.6634 61.2915 77.4 58.7378 77.4V77.9V78.4C61.2241 78.4 63.9754 78.6566 66.9935 79.1728L67.0778 78.68ZM58.7378 77.9V77.4C56.2313 77.4 53.9192 77.6021 51.8034 78.009L51.8978 78.5L51.9922 78.991C54.0364 78.5979 56.2843 78.4 58.7378 78.4V77.9ZM51.8978 78.5L51.4334 78.3148C48.8303 84.8424 46.9263 89.0384 45.7153 90.9527L46.1378 91.22L46.5604 91.4873C47.8293 89.4816 49.7653 85.1976 52.3622 78.6852L51.8978 78.5ZM46.1378 91.22L45.7169 90.9502C43.7682 93.9902 41.5838 95.4 39.1778 95.4V95.9V96.4C42.0518 96.4 44.5075 94.6898 46.5588 91.4898L46.1378 91.22ZM39.1778 95.9V95.4C37.4632 95.4 36.148 94.8289 35.1749 93.7116L34.7978 94.04L34.4208 94.3684C35.6077 95.7311 37.2125 96.4 39.1778 96.4V95.9ZM34.7978 94.04L35.1749 93.7116C34.1837 92.5736 33.6778 91.1547 33.6778 89.42H33.1778H32.6778C32.6778 91.3653 33.2519 93.0264 34.4208 94.3684L34.7978 94.04ZM33.1778 89.42H33.6778C33.6778 86.8411 34.9841 84.1808 37.7314 81.4336L37.3778 81.08L37.0243 80.7264C34.1715 83.5792 32.6778 86.4789 32.6778 89.42H33.1778ZM37.3778 81.08L37.7314 81.4336C40.4552 78.7097 44.007 76.8294 48.4109 75.807L48.2978 75.32L48.1847 74.833C43.6287 75.8906 39.9005 77.8503 37.0243 80.7264L37.3778 81.08ZM48.2978 75.32L48.7682 75.4896C50.5302 70.604 52.1722 65.7782 53.6941 61.0121L53.2178 60.86L52.7415 60.7079C51.2235 65.4618 49.5855 70.276 47.8275 75.1504L48.2978 75.32ZM53.2178 60.86L53.6929 61.0157C55.2582 56.2398 56.1292 53.6487 56.3194 53.1923L55.8578 53L55.3963 52.8077C55.1864 53.3113 54.2975 55.9602 52.7427 60.7043L53.2178 60.86ZM55.8578 53L56.3297 53.1652C57.1558 50.805 58.2012 49.9 59.3378 49.9V49.4V48.9C57.5145 48.9 56.2398 50.395 55.3859 52.8348L55.8578 53ZM59.3378 49.4V49.9C60.0419 49.9 60.6412 50.1196 61.1584 50.5605C61.6851 51.0094 62.15 51.7085 62.5311 52.6995L62.9978 52.52L63.4645 52.3405C63.0456 51.2515 62.5006 50.3906 61.8072 49.7995C61.1045 49.2004 60.2737 48.9 59.3378 48.9V49.4ZM62.9978 52.52L62.5269 52.6882C62.7247 53.2419 63.2826 54.8956 64.2035 57.6581L64.6778 57.5L65.1522 57.3419C64.233 54.5844 63.6709 52.9181 63.4687 52.3518L62.9978 52.52ZM64.6778 57.5L64.203 57.6567L70.143 75.6567L70.6178 75.5L71.0926 75.3433L65.1526 57.3433L64.6778 57.5ZM70.6178 75.5L70.4774 75.9799C72.0789 76.4486 73.362 77.047 74.3428 77.7637L74.6378 77.36L74.9328 76.9563C73.8336 76.153 72.4367 75.5114 70.7583 75.0201L70.6178 75.5ZM74.6378 77.36L74.3428 77.7637C74.8434 78.1295 75.194 78.4538 75.4151 78.7344C75.6388 79.0184 75.6978 79.2162 75.6978 79.34H76.1978H76.6978C76.6978 78.9038 76.4968 78.4916 76.2006 78.1156C75.9017 77.7362 75.4722 77.3505 74.9328 76.9563L74.6378 77.36ZM76.1978 79.34H75.6978C75.6978 79.7117 75.5987 79.9017 75.4843 80.007C75.362 80.1196 75.1306 80.22 74.6978 80.22V80.72V81.22C75.265 81.22 75.7837 81.0904 76.1613 80.743C76.5469 80.3883 76.6978 79.8883 76.6978 79.34H76.1978ZM74.6978 80.72V80.22C74.5997 80.22 74.3359 80.1724 73.8478 80.03C73.3818 79.8941 72.7625 79.6879 71.9867 79.4094L71.8178 79.88L71.6489 80.3506C72.4331 80.6321 73.0739 80.8459 73.5678 80.99C74.0397 81.1276 74.4359 81.22 74.6978 81.22V80.72ZM71.8178 79.88L71.3401 80.0278C72.2009 82.8102 72.9131 85.0022 73.4762 86.6011C73.7577 87.4003 74.0034 88.0555 74.213 88.5642C74.4189 89.0639 74.6012 89.4503 74.7586 89.6925L75.1778 89.42L75.597 89.1475C75.4945 88.9897 75.3417 88.6786 75.1376 88.1833C74.9372 87.697 74.6979 87.0597 74.4194 86.2689C73.8625 84.6878 73.1547 82.5098 72.2955 79.7322L71.8178 79.88ZM75.1778 89.42L74.7586 89.6925C75.0259 90.1037 75.2753 90.445 75.5065 90.7093C75.7311 90.9659 75.9673 91.1838 76.2142 91.3072L76.4378 90.86L76.6614 90.4128C76.5883 90.3762 76.4545 90.2741 76.2591 90.0507C76.0704 89.835 75.8498 89.5363 75.597 89.1475L75.1778 89.42ZM76.4378 90.86L76.2142 91.3072C76.5791 91.4896 76.9822 91.6228 77.4198 91.7103L77.5178 91.22L77.6159 90.7297C77.2535 90.6572 76.9366 90.5504 76.6614 90.4128L76.4378 90.86ZM77.5178 91.22L77.4243 91.7112C77.8281 91.7881 78.086 91.8721 78.2308 91.9479C78.3959 92.0344 78.2778 92.0306 78.2778 91.88H78.7778H79.2778C79.2778 91.4494 78.9498 91.1956 78.6948 91.0621C78.4196 90.9179 78.0475 90.8119 77.6114 90.7288L77.5178 91.22ZM114.201 52.82L113.872 53.1966V53.1966L114.201 52.82ZM116.001 68L116.359 68.3493L116.363 68.345L116.001 68ZM104.541 68.36L104.187 68.7137L104.197 68.723L104.541 68.36ZM103.401 59.12L102.983 58.846L103.401 59.12ZM107.661 57.92L107.326 58.2916L107.337 58.3014L107.348 58.3104L107.661 57.92ZM107.421 61.1L107.823 61.3967L107.83 61.3867L107.421 61.1ZM107.601 65.72L107.27 66.0949L107.276 66.1006L107.283 66.106L107.601 65.72ZM113.001 65.3L112.622 64.9732L112.621 64.9746L113.001 65.3ZM111.261 56L110.911 56.3574L110.917 56.3631L110.923 56.3686L111.261 56ZM92.7208 59L93.1239 59.2959L93.1253 59.2938L92.7208 59ZM92.9008 85.88L92.4978 86.176L92.4993 86.178L92.9008 85.88ZM109.281 90.92L109.136 90.4414L109.133 90.4424L109.281 90.92ZM113.181 89.06L113.497 89.447L113.5 89.4447L113.181 89.06ZM118.221 86.9L117.867 87.2536L117.879 87.2653L117.892 87.2763L118.221 86.9ZM114.201 93.14L114.465 93.5646L114.466 93.5637L114.201 93.14ZM89.4208 89.12L89.0353 89.4385L89.0381 89.4418L89.4208 89.12ZM89.3008 55.88L89.6855 56.1994L89.6868 56.1977L89.3008 55.88ZM103.281 49.1V49.6C107.623 49.6 111.139 50.8099 113.872 53.1966L114.201 52.82L114.53 52.4434C111.583 49.8701 107.819 48.6 103.281 48.6V49.1ZM114.201 52.82L113.872 53.1966C116.62 55.596 117.961 58.3648 117.961 61.52H118.461H118.961C118.961 58.0352 117.462 55.004 114.53 52.4434L114.201 52.82ZM118.461 61.52H117.961C117.961 64.0047 117.182 66.0371 115.639 67.655L116.001 68L116.363 68.345C118.1 66.5229 118.961 64.2353 118.961 61.52H118.461ZM116.001 68L115.643 67.6507C114.092 69.2395 112.279 70.02 110.181 70.02V70.52V71.02C112.563 71.02 114.63 70.1205 116.359 68.3493L116.001 68ZM110.181 70.52V70.02C108.059 70.02 106.305 69.3425 104.885 67.997L104.541 68.36L104.197 68.723C105.817 70.2575 107.823 71.02 110.181 71.02V70.52ZM104.541 68.36L104.894 68.0064C103.443 66.5555 102.761 65.0561 102.761 63.5H102.261H101.761C101.761 65.3839 102.598 67.1245 104.187 68.7136L104.541 68.36ZM102.261 63.5H102.761C102.761 61.8113 103.125 60.4532 103.819 59.394L103.401 59.12L102.983 58.846C102.157 60.1068 101.761 61.6687 101.761 63.5H102.261ZM103.401 59.12L103.819 59.394C104.516 58.3299 105.297 57.88 106.161 57.88V57.38V56.88C104.865 56.88 103.805 57.5901 102.983 58.846L103.401 59.12ZM106.161 57.38V57.88C106.653 57.88 107.029 58.024 107.326 58.2916L107.661 57.92L107.995 57.5484C107.493 57.096 106.869 56.88 106.161 56.88V57.38ZM107.661 57.92L107.348 58.3104C107.628 58.5339 107.761 58.8092 107.761 59.18H108.261H108.761C108.761 58.5108 108.494 57.9461 107.973 57.5296L107.661 57.92ZM108.261 59.18H107.761C107.761 59.4954 107.562 60.0257 107.011 60.8133L107.421 61.1L107.83 61.3867C108.399 60.5743 108.761 59.8246 108.761 59.18H108.261ZM107.421 61.1L107.018 60.8034C106.4 61.6427 106.081 62.5653 106.081 63.56H106.581H107.081C107.081 62.7947 107.322 62.0773 107.823 61.3966L107.421 61.1ZM106.581 63.56H106.081C106.081 64.5558 106.492 65.4085 107.27 66.0949L107.601 65.72L107.932 65.3451C107.35 64.8315 107.081 64.2442 107.081 63.56H106.581ZM107.601 65.72L107.283 66.106C108.071 66.7552 109.072 67.06 110.241 67.06V66.56V66.06C109.25 66.06 108.49 65.8048 107.919 65.334L107.601 65.72ZM110.241 66.56V67.06C111.505 67.06 112.564 66.5778 113.38 65.6254L113.001 65.3L112.621 64.9746C111.997 65.7022 111.217 66.06 110.241 66.06V66.56ZM113.001 65.3L113.379 65.6268C114.235 64.6358 114.641 63.3503 114.641 61.82H114.141H113.641C113.641 63.1697 113.287 64.2042 112.622 64.9732L113.001 65.3ZM114.141 61.82H114.641C114.641 59.5287 113.597 57.4628 111.599 55.6314L111.261 56L110.923 56.3686C112.765 58.0572 113.641 59.8713 113.641 61.82H114.141ZM111.261 56L111.61 55.6426C109.648 53.7228 106.844 52.8 103.281 52.8V53.3V53.8C106.677 53.8 109.194 54.6772 110.911 56.3574L111.261 56ZM103.281 53.3V52.8C98.8234 52.8 95.1597 54.7913 92.3162 58.7062L92.7208 59L93.1253 59.2938C95.8019 55.6087 99.1781 53.8 103.281 53.8V53.3ZM92.7208 59L92.3177 58.7041C89.4886 62.5584 88.0808 67.1045 88.0808 72.32H88.5808H89.0808C89.0808 67.2955 90.433 62.9616 93.1238 59.2959L92.7208 59ZM88.5808 72.32H88.0808C88.0808 77.5405 89.5513 82.1655 92.4978 86.176L92.9008 85.88L93.3037 85.584C90.4902 81.7545 89.0808 77.3395 89.0808 72.32H88.5808ZM92.9008 85.88L92.4993 86.178C95.4629 90.1706 99.2454 92.2 103.821 92.2V91.7V91.2C99.5962 91.2 96.0987 89.3494 93.3023 85.582L92.9008 85.88ZM103.821 91.7V92.2C105.825 92.2 107.696 91.9341 109.429 91.3976L109.281 90.92L109.133 90.4424C107.506 90.9459 105.736 91.2 103.821 91.2V91.7ZM109.281 90.92L109.425 91.3986C111.176 90.8694 112.546 90.2255 113.497 89.447L113.181 89.06L112.864 88.673C112.056 89.3345 110.826 89.9306 109.136 90.4414L109.281 90.92ZM113.181 89.06L113.5 89.4447C114.556 88.5682 115.392 87.9193 116.014 87.492C116.326 87.2779 116.573 87.1262 116.761 87.0301C116.971 86.9229 117.04 86.92 117.021 86.92V86.42V85.92C116.782 85.92 116.526 86.0271 116.306 86.1399C116.063 86.2638 115.776 86.4421 115.448 86.668C114.789 87.1206 113.926 87.7918 112.861 88.6753L113.181 89.06ZM117.021 86.42V86.92C117.377 86.92 117.647 87.0335 117.867 87.2536L118.221 86.9L118.574 86.5464C118.154 86.1265 117.624 85.92 117.021 85.92V86.42ZM118.221 86.9L117.892 87.2763C118.099 87.4576 118.201 87.6785 118.201 87.98H118.701H119.201C119.201 87.4015 118.983 86.9024 118.55 86.5237L118.221 86.9ZM118.701 87.98H118.201C118.201 88.5938 117.906 89.3012 117.199 90.1114C116.494 90.9199 115.414 91.7897 113.935 92.7163L114.201 93.14L114.466 93.5637C115.988 92.6103 117.158 91.6801 117.953 90.7686C118.746 89.8588 119.201 88.9262 119.201 87.98H118.701ZM114.201 93.14L113.937 92.7154C111.067 94.4992 107.682 95.4 103.761 95.4V95.9V96.4C107.84 96.4 111.414 95.4608 114.465 93.5646L114.201 93.14ZM103.761 95.9V95.4C98.1526 95.4 93.5113 93.2085 89.8035 88.7982L89.4208 89.12L89.0381 89.4418C92.9303 94.0715 97.8489 96.4 103.761 96.4V95.9ZM89.4208 89.12L89.8063 88.8016C86.0873 84.2997 84.2208 78.8553 84.2208 72.44H83.7208H83.2208C83.2208 79.0647 85.1542 84.7403 89.0353 89.4384L89.4208 89.12ZM83.7208 72.44H84.2208C84.2208 65.981 86.0494 60.5783 89.6855 56.1994L89.3008 55.88L88.9161 55.5606C85.1121 60.1417 83.2208 65.779 83.2208 72.44H83.7208ZM89.3008 55.88L89.6868 56.1977C93.3168 51.7871 97.8379 49.6 103.281 49.6V49.1V48.6C97.5237 48.6 92.7247 50.9329 88.9147 55.5623L89.3008 55.88ZM154.865 52.82L154.536 53.1966V53.1966L154.865 52.82ZM156.665 68L157.023 68.3493L157.027 68.345L156.665 68ZM145.205 68.36L144.851 68.7137L144.861 68.723L145.205 68.36ZM144.065 59.12L143.647 58.846L144.065 59.12ZM148.325 57.92L147.99 58.2916L148.001 58.3014L148.012 58.3104L148.325 57.92ZM148.085 61.1L148.487 61.3967L148.494 61.3867L148.085 61.1ZM148.265 65.72L147.934 66.0949L147.94 66.1006L147.947 66.106L148.265 65.72ZM153.665 65.3L153.286 64.9732L153.285 64.9746L153.665 65.3ZM151.925 56L151.575 56.3574L151.581 56.3631L151.587 56.3686L151.925 56ZM133.385 59L133.788 59.2959L133.789 59.2938L133.385 59ZM133.565 85.88L133.162 86.176L133.163 86.178L133.565 85.88ZM149.945 90.92L149.8 90.4414L149.797 90.4424L149.945 90.92ZM153.845 89.06L154.161 89.447L154.164 89.4447L153.845 89.06ZM158.885 86.9L158.531 87.2536L158.543 87.2653L158.556 87.2763L158.885 86.9ZM154.865 93.14L155.129 93.5646L155.13 93.5637L154.865 93.14ZM130.085 89.12L129.699 89.4385L129.702 89.4418L130.085 89.12ZM129.965 55.88L130.35 56.1994L130.351 56.1977L129.965 55.88ZM143.945 49.1V49.6C148.287 49.6 151.803 50.8099 154.536 53.1966L154.865 52.82L155.194 52.4434C152.247 49.8701 148.483 48.6 143.945 48.6V49.1ZM154.865 52.82L154.536 53.1966C157.284 55.596 158.625 58.3648 158.625 61.52H159.125H159.625C159.625 58.0352 158.126 55.004 155.194 52.4434L154.865 52.82ZM159.125 61.52H158.625C158.625 64.0047 157.846 66.0371 156.303 67.655L156.665 68L157.027 68.345C158.764 66.5229 159.625 64.2353 159.625 61.52H159.125ZM156.665 68L156.307 67.6507C154.756 69.2395 152.943 70.02 150.845 70.02V70.52V71.02C153.227 71.02 155.294 70.1205 157.023 68.3493L156.665 68ZM150.845 70.52V70.02C148.723 70.02 146.969 69.3425 145.549 67.997L145.205 68.36L144.861 68.723C146.481 70.2575 148.487 71.02 150.845 71.02V70.52ZM145.205 68.36L145.558 68.0064C144.107 66.5555 143.425 65.0561 143.425 63.5H142.925H142.425C142.425 65.3839 143.262 67.1245 144.851 68.7136L145.205 68.36ZM142.925 63.5H143.425C143.425 61.8113 143.789 60.4532 144.483 59.394L144.065 59.12L143.647 58.846C142.821 60.1068 142.425 61.6687 142.425 63.5H142.925ZM144.065 59.12L144.483 59.394C145.18 58.3299 145.961 57.88 146.825 57.88V57.38V56.88C145.529 56.88 144.469 57.5901 143.647 58.846L144.065 59.12ZM146.825 57.38V57.88C147.317 57.88 147.693 58.024 147.99 58.2916L148.325 57.92L148.659 57.5484C148.157 57.096 147.533 56.88 146.825 56.88V57.38ZM148.325 57.92L148.012 58.3104C148.292 58.5339 148.425 58.8092 148.425 59.18H148.925H149.425C149.425 58.5108 149.158 57.9461 148.637 57.5296L148.325 57.92ZM148.925 59.18H148.425C148.425 59.4954 148.227 60.0257 147.675 60.8133L148.085 61.1L148.494 61.3867C149.063 60.5743 149.425 59.8246 149.425 59.18H148.925ZM148.085 61.1L147.682 60.8034C147.064 61.6427 146.745 62.5653 146.745 63.56H147.245H147.745C147.745 62.7947 147.986 62.0773 148.487 61.3966L148.085 61.1ZM147.245 63.56H146.745C146.745 64.5558 147.156 65.4085 147.934 66.0949L148.265 65.72L148.596 65.3451C148.014 64.8315 147.745 64.2442 147.745 63.56H147.245ZM148.265 65.72L147.947 66.106C148.735 66.7552 149.736 67.06 150.905 67.06V66.56V66.06C149.914 66.06 149.154 65.8048 148.583 65.334L148.265 65.72ZM150.905 66.56V67.06C152.169 67.06 153.228 66.5778 154.044 65.6254L153.665 65.3L153.285 64.9746C152.662 65.7022 151.881 66.06 150.905 66.06V66.56ZM153.665 65.3L154.043 65.6268C154.899 64.6358 155.305 63.3503 155.305 61.82H154.805H154.305C154.305 63.1697 153.951 64.2042 153.286 64.9732L153.665 65.3ZM154.805 61.82H155.305C155.305 59.5287 154.261 57.4628 152.263 55.6314L151.925 56L151.587 56.3686C153.429 58.0572 154.305 59.8713 154.305 61.82H154.805ZM151.925 56L152.274 55.6426C150.312 53.7228 147.508 52.8 143.945 52.8V53.3V53.8C147.341 53.8 149.858 54.6772 151.575 56.3574L151.925 56ZM143.945 53.3V52.8C139.487 52.8 135.824 54.7913 132.98 58.7062L133.385 59L133.789 59.2938C136.466 55.6087 139.842 53.8 143.945 53.8V53.3ZM133.385 59L132.982 58.7041C130.153 62.5584 128.745 67.1045 128.745 72.32H129.245H129.745C129.745 67.2955 131.097 62.9616 133.788 59.2959L133.385 59ZM129.245 72.32H128.745C128.745 77.5405 130.215 82.1655 133.162 86.176L133.565 85.88L133.968 85.584C131.154 81.7545 129.745 77.3395 129.745 72.32H129.245ZM133.565 85.88L133.163 86.178C136.127 90.1706 139.909 92.2 144.485 92.2V91.7V91.2C140.26 91.2 136.763 89.3494 133.966 85.582L133.565 85.88ZM144.485 91.7V92.2C146.489 92.2 148.36 91.9341 150.093 91.3976L149.945 90.92L149.797 90.4424C148.17 90.9459 146.4 91.2 144.485 91.2V91.7ZM149.945 90.92L150.09 91.3986C151.84 90.8694 153.21 90.2255 154.161 89.447L153.845 89.06L153.528 88.673C152.72 89.3345 151.49 89.9306 149.8 90.4414L149.945 90.92ZM153.845 89.06L154.164 89.4447C155.22 88.5682 156.057 87.9193 156.678 87.492C156.99 87.2779 157.237 87.1262 157.425 87.0301C157.635 86.9229 157.704 86.92 157.685 86.92V86.42V85.92C157.446 85.92 157.19 86.0271 156.97 86.1399C156.727 86.2638 156.44 86.4421 156.112 86.668C155.453 87.1206 154.59 87.7918 153.525 88.6753L153.845 89.06ZM157.685 86.42V86.92C158.041 86.92 158.311 87.0335 158.531 87.2536L158.885 86.9L159.238 86.5464C158.818 86.1265 158.289 85.92 157.685 85.92V86.42ZM158.885 86.9L158.556 87.2763C158.763 87.4576 158.865 87.6785 158.865 87.98H159.365H159.865C159.865 87.4015 159.647 86.9024 159.214 86.5237L158.885 86.9ZM159.365 87.98H158.865C158.865 88.5938 158.57 89.3012 157.863 90.1114C157.158 90.9199 156.078 91.7897 154.599 92.7163L154.865 93.14L155.13 93.5637C156.652 92.6103 157.822 91.6801 158.617 90.7686C159.41 89.8588 159.865 88.9262 159.865 87.98H159.365ZM154.865 93.14L154.601 92.7154C151.731 94.4992 148.346 95.4 144.425 95.4V95.9V96.4C148.504 96.4 152.078 95.4608 155.129 93.5646L154.865 93.14ZM144.425 95.9V95.4C138.817 95.4 134.175 93.2085 130.468 88.7982L130.085 89.12L129.702 89.4418C133.594 94.0715 138.513 96.4 144.425 96.4V95.9ZM130.085 89.12L130.47 88.8016C126.751 84.2997 124.885 78.8553 124.885 72.44H124.385H123.885C123.885 79.0647 125.818 84.7403 129.699 89.4384L130.085 89.12ZM124.385 72.44H124.885C124.885 65.981 126.713 60.5783 130.35 56.1994L129.965 55.88L129.58 55.5606C125.776 60.1417 123.885 65.779 123.885 72.44H124.385ZM129.965 55.88L130.351 56.1977C133.981 51.7871 138.502 49.6 143.945 49.6V49.1V48.6C138.188 48.6 133.389 50.9329 129.579 55.5623L129.965 55.88Z" fill="#49204D"/>
<path d="M59.9434 128.302C59.9336 128.536 59.8604 128.946 59.7236 129.532C59.5869 130.118 59.4746 130.514 59.3867 130.719H56.8818C56.8232 131.236 56.7549 131.993 56.6768 132.989C56.6768 133.116 56.5205 133.307 56.208 133.561C55.8955 133.814 55.627 133.941 55.4023 133.941H48.9131C50.2705 128.17 51.2275 121.925 51.7842 115.206C51.7842 115.079 51.9404 114.889 52.2529 114.635C52.5752 114.381 52.8438 114.254 53.0586 114.254H59.5479C58.5713 118.326 57.7607 123.009 57.1162 128.302H59.9434ZM48.21 130.719H42.5117C42.2578 130.143 42.0332 129.361 41.8379 128.375C42.7461 127.418 44.1963 125.572 46.1885 122.838C48.1904 120.094 49.6504 117.945 50.5684 116.393C49.1133 120.826 47.1992 124.796 44.8262 128.302H49.0889C49.0889 128.546 48.9424 129.005 48.6494 129.679C48.3662 130.353 48.2197 130.699 48.21 130.719ZM70.3877 134.293C71.2764 133.482 71.999 132.369 72.5557 130.953C73.5322 128.492 74.0205 125.401 74.0205 121.681C74.0205 119.503 73.8691 117.345 73.5664 115.206C73.5664 115.069 73.7227 114.874 74.0352 114.62C74.3574 114.356 74.6357 114.225 74.8701 114.225C76.1494 114.596 77.2432 115.245 78.1514 116.173C79.8799 117.95 80.7441 120.289 80.7441 123.189C80.7441 125.484 80.1973 127.564 79.1035 129.43C77.9121 131.48 76.3105 132.896 74.2988 133.678C73.2051 134.098 72.0283 134.308 70.7686 134.308C70.7295 134.308 70.666 134.303 70.5781 134.293C70.4902 134.293 70.4268 134.293 70.3877 134.293ZM73.0098 113.888C72.1211 114.698 71.3936 115.816 70.8271 117.242C69.8311 119.703 69.333 122.799 69.333 126.529C69.333 128.678 69.4941 130.821 69.8164 132.96C69.8164 133.097 69.6602 133.297 69.3477 133.561C69.0352 133.814 68.7617 133.941 68.5273 133.941C67.248 133.57 66.1592 132.921 65.2607 131.993C63.5225 130.216 62.6533 127.877 62.6533 124.977C62.6533 122.691 63.2002 120.611 64.2939 118.736C65.4756 116.715 67.0771 115.309 69.0986 114.518C70.1826 114.098 71.3594 113.888 72.6289 113.888H73.0098ZM111.506 133.414C109.602 133.824 107.556 134.029 105.368 134.029C104.87 133.355 104.621 132.647 104.621 131.905C104.621 131.163 104.841 129.283 105.28 126.266C105.72 123.238 105.944 121.227 105.954 120.23C105.954 120.104 106.115 119.913 106.438 119.659C106.76 119.405 107.028 119.278 107.243 119.278C109.333 119.278 111.301 119.557 113.146 120.113C113.107 120.426 112.849 121.671 112.37 123.849C111.892 126.017 111.652 127.76 111.652 129.078C111.652 130.387 112.004 131.393 112.707 132.096C112.707 132.232 112.57 132.462 112.297 132.784C112.023 133.097 111.76 133.307 111.506 133.414ZM104.724 119.073C103.562 119.933 102.678 121.1 102.072 122.574C101.477 124.049 101.179 125.499 101.179 126.925C101.179 128.341 101.335 129.615 101.647 130.748C101.97 131.871 102.399 132.623 102.937 133.004C102.937 133.15 102.78 133.355 102.468 133.619C102.155 133.873 101.887 134 101.662 134C99.4258 134 97.6289 133.438 96.2715 132.315C94.9238 131.192 94.25 129.659 94.25 127.716C94.25 125.304 95.1631 123.277 96.9893 121.637C97.8682 120.846 98.9717 120.221 100.3 119.762C101.638 119.303 103.112 119.073 104.724 119.073ZM122.521 134H116.369C117.385 129.723 118.088 125.206 118.479 120.45C118.479 120.333 118.635 120.157 118.947 119.923C119.26 119.679 119.587 119.527 119.929 119.469C120.28 119.41 121.13 119.332 122.478 119.234C123.835 119.127 124.885 119.073 125.627 119.073C124.836 123.165 124.226 127.818 123.796 133.033C123.796 133.16 123.64 133.355 123.327 133.619C123.015 133.873 122.746 134 122.521 134ZM127.81 134.146C127.243 133.6 126.96 132.896 126.96 132.037C126.96 131.178 127.175 129.537 127.604 127.115C128.044 124.693 128.264 123.204 128.264 122.647C128.264 122.081 128.127 121.676 127.854 121.432C127.59 121.178 127.243 121.051 126.813 121.051C126.901 120.465 127.067 120.025 127.312 119.732C127.673 119.557 128.239 119.396 129.011 119.249C129.792 119.103 130.515 119.029 131.179 119.029C132.478 119.029 133.449 119.327 134.094 119.923C134.748 120.519 135.075 121.461 135.075 122.75C135.075 123.473 134.919 124.742 134.606 126.559C134.294 128.375 134.138 129.488 134.138 129.898C134.138 130.309 134.152 130.616 134.182 130.821C134.221 131.026 134.25 131.188 134.27 131.305C134.299 131.422 134.367 131.559 134.475 131.715C134.582 131.861 134.65 131.954 134.68 131.993C134.709 132.022 134.807 132.12 134.973 132.286C135.139 132.442 135.236 132.535 135.266 132.564C135.266 132.701 135.124 132.931 134.841 133.253C134.558 133.565 134.299 133.771 134.064 133.868C132.814 134.054 130.729 134.146 127.81 134.146ZM147.175 118.941C146.618 119.469 146.34 120.025 146.34 120.611C146.34 121.979 147.38 123.395 149.46 124.859C150.397 125.523 151.13 126.09 151.657 126.559C152.839 127.613 153.43 128.761 153.43 130.001C153.43 131.231 152.81 132.228 151.569 132.989C150.339 133.741 148.61 134.117 146.384 134.117C146.638 133.551 146.765 133.038 146.765 132.579C146.765 132.12 146.633 131.676 146.369 131.246C146.115 130.807 145.783 130.406 145.373 130.045C144.963 129.684 144.509 129.322 144.011 128.961C143.513 128.59 143.015 128.214 142.517 127.833C142.019 127.452 141.564 127.062 141.154 126.661C140.227 125.753 139.763 124.771 139.763 123.717C139.763 122.555 140.192 121.607 141.052 120.875C142.526 119.635 144.567 118.99 147.175 118.941ZM149.445 118.985C150.822 118.985 152.004 119.259 152.99 119.806C153.977 120.343 154.47 121.002 154.47 121.783C154.47 122.994 153.337 123.736 151.071 124.01C151.091 123.941 151.101 123.834 151.101 123.688C151.101 122.945 150.866 122.262 150.397 121.637C149.929 121.002 149.274 120.494 148.435 120.113C148.435 119.957 148.542 119.742 148.757 119.469C148.972 119.195 149.201 119.034 149.445 118.985ZM143.82 134.059C143.332 134.098 142.971 134.117 142.736 134.117C141.32 134.117 140.144 133.888 139.206 133.429C138.269 132.96 137.8 132.354 137.8 131.612C137.8 130.118 138.928 129.176 141.184 128.785C141.105 129.205 141.071 129.576 141.081 129.898C141.101 130.211 141.208 130.523 141.403 130.836C141.608 131.139 141.892 131.412 142.253 131.656C142.897 132.086 143.698 132.481 144.655 132.843C144.655 132.989 144.562 133.209 144.377 133.502C144.201 133.785 144.016 133.971 143.82 134.059Z" fill="#49204D"/>
</svg>
